<svg version="1.2" xmlns="http://www.w3.org/2000/svg" viewBox="0 0 2182 814" width="2182" height="814"><style>.a{opacity:1;fill:#fff}</style><path fill-rule="evenodd" class="a" d="m379.6 66.2c2.7-0.2 3 0.1 4.6 5.5 0.9 3.2 2.6 9.6 3.8 14.3 1.2 4.7 2.6 9.4 3 10.5 0.5 1.1 1.1 3.1 1.4 4.5 0.2 1.4 1 4.3 1.6 6.5 0.6 2.2 1.5 5.6 2 7.5 0.5 1.9 1.2 4.8 1.5 6.5 0.4 1.7 1 3.9 1.5 5 0.5 1.1 1.1 3.1 1.3 4.5 0.3 1.4 1.5 6 2.6 10.2 1.2 4.3 3 11.3 4.2 15.5 1.1 4.3 2.5 9.4 3 11.3 0.6 1.9 1.4 5.1 1.9 7 0.4 1.9 1.6 6.4 2.5 10 0.9 3.6 2 7.3 2.6 8.2 0.5 1 0.9 1.9 0.9 2 0 0.2-1.9 0.9-4.2 1.7-2.4 0.7-5.3 1.7-6.6 2.2-1.8 0.7-2.5 0.5-3.7-1.6-0.8-1.4-1.3-2.5-1-2.5 0.3 0 0.1-1.5-0.4-3.3-0.5-1.7-1.9-6.7-3-11-1.2-4.2-3-11.2-4.2-15.5-1.1-4.2-2.4-9-2.9-10.7-0.5-1.7-1.8-6.6-3-11-1.2-4.4-2.6-9.6-3.1-11.5-0.6-1.9-1.4-5.1-1.9-7-0.4-1.9-1.6-6.2-2.5-9.5-0.9-3.3-2.1-7.8-2.7-10-0.5-2.2-1.4-4.8-1.9-5.8-0.5-0.9-0.9-3-0.9-4.7 0-1.7-0.3-3.2-0.8-3.4-0.4-0.2-1-1.9-1.5-3.7-0.4-1.9-1-5-1.3-6.9-0.3-1.9-1-4.3-1.5-5.3-0.5-0.9-0.9-2.8-0.9-4.2 0-1.9 0.6-2.6 2.8-3.1 1.6-0.4 3.1-1 3.4-1.3 0.3-0.4 1.8-0.8 3.4-0.9zm-84.7 65.8c0.3 0 2.1 1.5 3.8 3.5 1.8 1.9 3.3 3.8 3.3 4.3 0 0.4 1.3 2 2.8 3.7 1.5 1.7 3.9 4.6 5.2 6.5 1.3 1.9 3.5 4.6 4.7 6 1.3 1.4 2.3 2.8 2.3 3.2 0 0.5 1.1 1.9 2.5 3.3 1.4 1.4 2.5 2.8 2.5 3.2 0 0.5 1.4 2.3 3 4 1.7 1.8 3 3.6 3 4 0 0.5 1.3 2.1 2.8 3.8 1.5 1.7 3.9 4.6 5.2 6.5 1.3 1.9 3.2 4.2 4.2 5 0.9 0.8 1.7 1.9 1.8 2.5 0 0.6 1.4 2.5 3 4.3 1.7 1.7 3 3.5 3 3.9 0 0.5 1.3 2.1 2.8 3.8 1.5 1.7 3.9 4.6 5.2 6.5 1.3 1.9 3.1 4.2 3.8 5 0.8 0.8 1.9 2.3 2.3 3.3 0.6 1.2 0.4 2.2-0.9 3.3-0.9 0.9-2.9 2.4-4.5 3.3-1.5 0.9-2.7 1.8-2.7 2.1 0 0.3 2.3 2 5 3.8 2.8 1.7 5.2 3.2 5.5 3.2 0.3 0 2 1.3 3.7 3 1.8 1.6 3.6 3 4 3 0.5 0 1.8 1 3.1 2.3 1.2 1.2 4 3.5 6.2 5.2 2.2 1.7 8.6 7.6 14.2 13.3 5.7 5.6 10.3 10.6 10.3 11.2 0 0.6 1.2 1.8 2.7 2.8 1.5 0.9 4.6 3.4 6.8 5.5 2.2 2.1 4.3 3.8 4.7 3.7 0.5 0 1.1 0.1 1.5 0.3 0.5 0.2 2.4 1.1 4.3 2.1 1.9 1 6.2 4.6 9.5 8 3.4 3.3 7.1 8.3 8.4 11.1 1.3 2.8 2.7 5.8 3.2 6.8 0.5 0.9 0.9 2.4 0.9 3.2 0 0.8-0.3 1.5-0.8 1.5-0.4 0-2.6-1.2-4.9-2.8-2.2-1.5-6.1-4.7-8.5-7.2-2.3-2.5-6.3-5.5-8.8-6.7-2.5-1.2-6.1-2.6-8-3.2-1.9-0.6-5.6-1.1-8.3-1.1-2.6 0-4.9 0.4-5.2 1-0.3 0.6-1.4 1-2.5 1-1.1 0-4.1 2.1-6.8 4.8-2.9 2.8-6.3 7.8-8.6 12.7-3.8 7.6-3.9 8.3-3.3 14.8 0.4 3.7 0.9 7.3 1.2 8 0.3 0.6 2.6 1.8 5.3 2.6 2.6 0.8 5.8 2 7.2 2.7 1.4 0.7 4.2 3.1 6.2 5.3 2.1 2.3 3.8 4.4 3.8 4.9 0 0.4 0.9 1.5 2 2.5 1.1 0.9 2 2.4 2 3.2 0 0.8-0.2 1.5-0.5 1.5-0.3 0-3.1-0.7-6.3-1.6-3.1-0.8-6.8-1.9-8.2-2.4-1.4-0.4-7.2-2.3-13-4-5.8-1.8-20.4-6.6-32.5-10.7-12.1-4.1-23.2-7.7-24.8-7.9-1.5-0.2-2.7-0.8-2.7-1.4 0-0.6-0.9-1-2-1-1.1 0-2.8-0.4-3.8-0.9-0.9-0.5-2.8-1.3-4.2-1.9-1.4-0.6-3.6-1.2-5-1.4-2.4-0.3-2.5 0-3 10.2h-74l-0.6 3.3c-0.4 1.7-0.4 4 0 5 0.6 1.6 3.3 1.7 74.6 1.7v4.5c0 4.3-0.1 4.5-3.3 5-1.7 0.2-7.7 0.9-13.2 1.5-5.5 0.7-10.9 1.5-12 1.9-1.1 0.4-4.5 0.9-7.5 1-3 0.1-6 0.5-6.5 0.8-0.6 0.4-5.1 1-10 1.5-5 0.5-11.5 1.1-14.5 1.4-3 0.3-6.2 0.8-7 1.1-0.8 0.3-4 0.8-7 1-3 0.2-6.6 0.6-8 0.9-1.4 0.4-4.5 0.8-7 1-2.5 0.2-5 0.6-5.5 0.8-0.6 0.2-0.9 2.4-0.5 9.6h5.8c3.2 0 6.2-0.3 6.6-0.7 0.4-0.5 2.6-0.9 4.9-1 2.3-0.1 8.5-0.7 13.7-1.3 5.2-0.7 10.4-1.5 11.5-1.9 1.1-0.5 4.9-0.9 8.5-1 3.6-0.1 6.8-0.4 7.2-0.7 0.5-0.2 4.7-0.9 9.5-1.5 4.9-0.6 11-1.3 13.8-1.5 2.7-0.3 6.1-0.9 7.5-1.3 1.4-0.4 5.2-0.7 14.5-0.6v3.9c0 3.3-0.4 4-2.5 4.6-1.4 0.4-4.5 1.3-7 2-2.5 0.7-5.2 1.5-6 1.8-0.8 0.3-2.6 0.7-4 0.9-1.4 0.2-5.4 1.2-9 2.3-3.6 1-10.3 2.8-15 4-4.7 1.2-9.4 2.5-10.5 3-1.1 0.4-3.6 1.2-5.5 1.8-1.9 0.7-4.5 1.2-5.8 1.2-1.2 0-3.2 0.4-4.5 0.9-1.2 0.5-4.2 1.4-6.7 2.1-2.5 0.6-5.9 1.5-7.5 1.9-1.7 0.5-5 1.4-7.5 2.1-2.5 0.7-5.2 1.5-6 1.8-0.8 0.3-2.6 0.7-4 0.9-1.4 0.2-6.1 1.4-10.5 2.7-7.8 2.3-8 2.4-7.6 5.2 0.1 1.6 0.7 3.7 1.2 4.7 0.5 0.9 1.7 1.7 2.6 1.7 1 0 3.4-0.5 5.3-1.1 1.9-0.6 4.3-1.5 5.2-2 1-0.5 3.1-0.9 4.8-0.9 1.6 0 3.2-0.4 3.5-1 0.3-0.6 2-1.2 3.7-1.4 1.8-0.3 5.1-0.9 7.3-1.5 2.2-0.5 5.6-1.4 7.5-2 1.9-0.5 6.9-1.9 11-3 4.1-1.1 8.6-2.3 10-2.6 1.4-0.4 3.2-0.9 4-1.2 0.8-0.4 2.6-0.8 4-1 1.4-0.2 5.3-1.3 8.7-2.3 3.5-1.1 7.2-2 8.3-2 1.1 0 2.2-0.4 2.5-1 0.3-0.6 1.5-1 2.7-1 1.3 0 3.7-0.4 5.3-0.9 1.6-0.6 5-1.5 7.5-2.1 2.5-0.7 5.6-1.6 7-2.1 1.4-0.4 4.5-1.1 7-1.4 4.5-0.7 4.5-0.6 5.7 2.9 0.7 2 1.1 4 0.8 4.6-0.3 0.6-1.2 1-2 1-0.8 0-2.3 0.4-3.3 0.9-0.9 0.5-3.8 1.9-6.5 3-2.6 1.2-4.9 2.1-5.2 2.1-0.3 0-2.6 0.9-5.3 2.1-2.6 1.1-5.5 2.5-6.5 3-0.9 0.5-2.4 0.9-3.2 0.9-0.8 0-1.5 0.4-1.5 1 0 0.6-0.9 1-2 1-1.1 0-3.7 0.8-5.8 1.9-2 1-6.2 2.9-9.2 4.1-3 1.2-6.5 2.7-7.8 3.1-1.2 0.5-3.2 1.3-4.5 1.8-1.2 0.4-4.1 1.8-6.5 3-2.3 1.1-4.7 2.1-5.2 2.1-0.6 0-3.1 0.9-5.8 2.1-2.6 1.1-5.5 2.5-6.5 3-0.9 0.5-2.3 0.9-3 0.9-0.6-0.1-1.8 0.6-2.5 1.5-0.6 0.8-1 2.5-0.7 3.8 0.2 1.2 1 3 1.7 4.1 1.2 1.8 1.5 1.8 5.3 0.1 2.2-0.9 5.1-2.2 6.5-2.7 1.4-0.6 3.4-1.4 4.5-1.8 1.1-0.4 3.1-1.2 4.5-1.7 1.4-0.6 4.4-2 6.7-3.2 2.4-1.1 4.7-2.1 5.3-2.1 0.5 0 3.1-0.9 5.7-2.1 2.7-1.2 5.9-2.6 7.3-3.1 1.4-0.6 3.4-1.4 4.5-1.8 1.1-0.4 4.2-1.8 7-3 2.7-1.2 6-2.6 7.2-3.1 1.3-0.5 3.3-1.3 4.5-1.8 1.3-0.4 3.4-1.3 4.8-1.8 1.4-0.6 4.7-2.1 7.5-3.3 2.7-1.2 5.9-2.7 7-3.2 1.1-0.5 3.3-1 4.9-1.1 2.3-0.2 3.2 0.4 6.6 6.3l-3 2c-1.6 1.1-3.5 2-4 2-0.6 0-1 0.4-1 1 0 0.6-0.8 1.2-1.8 1.5-0.9 0.2-3.7 1.6-6.2 3.1-2.5 1.5-6 3.5-7.8 4.5-1.7 1.1-4.8 2.8-6.7 3.9-1.9 1.1-5 2.8-6.8 3.8-1.7 1.1-4.3 2.5-5.7 3.3-1.4 0.8-2.7 1.6-3 1.9-0.3 0.3-2.5 1.6-5 2.9-2.5 1.3-5.5 2.9-6.7 3.5-1.3 0.6-2.3 1.4-2.3 1.9 0 0.4-0.7 0.7-1.5 0.7-1.1 0-1.4 0.7-0.9 2.8 0.3 1.5 1 2.8 1.5 3 0.5 0.1 0.9 0.9 0.9 1.7 0 0.8 0.6 1.5 1.2 1.5 0.7 0 2.4-0.6 3.8-1.3 1.4-0.8 4.2-2.4 6.2-3.5 2.1-1.2 5.4-3.1 7.3-4.2 1.9-1.1 5-2.8 6.7-3.8 1.8-1.1 4.4-2.5 5.8-3.3 1.4-0.8 2.7-1.6 3-1.9 0.3-0.3 1.9-1.2 3.5-2 1.6-0.8 4.1-2.2 5.5-3.1 1.4-0.9 4.2-2.6 6.2-3.8 2.1-1.1 5.5-3 7.5-4.2 2.1-1.1 4.2-2.5 4.8-3 0.5-0.5 1.5-0.9 2.2-0.9 0.7 0 1.9 0.6 2.5 1.3 0.7 0.7 1.9 2.3 2.5 3.5 1.2 2 1 2.4-2.5 4.9-2 1.5-4.4 3.6-5.2 4.5-0.8 0.9-2 1.7-2.5 1.8-0.6 0-2.5 1.4-4.3 3-1.7 1.7-3.5 3-4 3-0.4 0-2.1 1.3-3.7 2.8-1.6 1.5-4.6 3.9-6.5 5.2-1.9 1.3-3.7 2.7-4 3-0.3 0.3-2.5 2.1-5 4-2.5 1.9-4.6 3.8-4.8 4.2-0.1 0.4-0.8 0.8-1.5 0.8-0.6 0-2.6 1.3-4.2 2.8-1.6 1.5-4.6 3.9-6.5 5.2-1.9 1.3-4.6 3.5-6 4.7-1.4 1.3-2.8 2.3-3.2 2.3-0.4 0-1.8 1.1-3.2 2.5-1.4 1.4-2.9 2.5-3.3 2.5-0.4 0-2.7 1.7-9.3 7.5l2.3 3.2c1.2 1.8 3.1 3.3 4.2 3.3 1.1 0 2.7-0.9 3.5-2 0.8-1.1 1.9-2 2.5-2 0.5 0 2.5-1.4 4.2-3 1.8-1.7 3.6-3 4-3 0.5 0 2.2-1.3 3.8-2.8 1.6-1.5 4.6-3.9 6.5-5.2 1.9-1.3 3.7-2.7 4-3 0.3-0.3 2.5-2.1 5-4 2.5-1.9 4.6-3.8 4.7-4.2 0.2-0.4 0.9-0.8 1.5-0.8 0.7 0 2.7-1.3 4.3-2.8 1.6-1.5 4.6-3.9 6.5-5.2 1.9-1.3 3.7-2.7 4-3 0.3-0.3 2.5-2.1 5-4 2.5-1.9 4.6-3.8 4.7-4.2 0.2-0.4 0.9-0.8 1.5-0.8 0.7 0 2.8-1.4 4.5-3 1.8-1.7 3.6-3 4-3 0.5 0.1 1.7-0.9 2.8-2 1.1-1.1 2.6-2.1 3.2-2 0.7 0 2.7 1.4 4.3 3 1.6 1.6 3.8 3 4.7 3 1 0 3.2-0.4 4.8-0.9 1.6-0.6 4.8-1.4 7-2 2.2-0.6 6.9-1.7 10.5-2.6 3.6-0.8 9.9-2.5 14-3.6 4.1-1.1 8.9-2.5 10.5-2.9 1.6-0.5 5.7-1.6 9-2.4 3.8-1 6.6-2.5 7.5-3.8 0.8-1.2 2.4-4.7 3.6-7.8 1.2-3 3.1-8.9 4.4-13 1.2-4.1 2.6-8.5 3.1-9.7 0.5-1.3 1.3-3.3 1.8-4.5 0.5-1.3 1.5-3.9 2.2-5.8 0.7-1.9 1.3-6.6 1.3-10.5 0.1-5.9-0.3-7.6-2.4-10.5-1.3-1.9-5.3-6.2-8.8-9.5-3.5-3.3-7-7.6-7.8-9.5-0.8-1.9-1.4-5.4-1.4-7.7 0-2.4 0.6-6.7 1.2-9.5 1-4 2.5-6.6 6.3-10.7 4.9-5.3 5.1-5.4 11.1-5.5 4.9-0.1 7.1 0.5 12.5 3.2 3.5 1.8 8.9 5.2 12 7.5 3.1 2.3 6.8 5.1 8.3 6.2 1.4 1.1 2.6 2.4 2.6 3 0 0.6 0.9 1.9 2 3 1.2 1.1 3.4 4.8 5 8.3 1.7 3.4 3 6.9 3 7.7 0 0.8 0.5 1.8 1.1 2.3 0.8 0.4 1 2.1 0.6 4.7-0.4 2.2-1.1 6-1.6 8.5-0.5 2.5-1.5 6.3-2.1 8.5-0.6 2.2-1.5 5.6-2 7.5-0.5 1.9-1.3 5.1-1.8 7-0.6 1.9-2.2 7.7-3.6 12.8-2.4 8.6-2.5 9.2-0.9 9.8 1 0.4 2.8 0.1 4-0.5 1.3-0.6 3.9-1.1 5.8-1.1 1.9 0 5.4-0.4 7.7-1 2.4-0.5 6.8-1.4 9.8-1.9 3-0.6 7.5-1.3 10-1.6 4.1-0.5 5-0.2 9.5 3.2 2.7 2.1 5.7 4.4 6.5 5.2 0.8 0.8 3.1 2.6 5 4 1.9 1.4 4.2 3.2 5 4 0.8 0.8 3.1 2.6 5 4 1.9 1.4 4.2 3.2 5 4 0.8 0.8 3.1 2.6 5 4 1.9 1.4 4.2 3.2 5 4 0.8 0.8 3.1 2.6 5 4 1.9 1.4 4.2 3.2 5 4 0.8 0.8 3.1 2.6 5 4 1.9 1.4 4.2 3.2 5 4 0.8 0.8 3.1 2.6 5 4 1.9 1.4 4.2 3.2 5 4 0.8 0.8 3.1 2.6 5 4 1.9 1.4 4.2 3.2 5 4 0.8 0.8 3.1 2.6 5 4 1.9 1.4 4.2 3.2 5 4 0.8 0.8 3.1 2.6 5 4 1.9 1.4 4 3 4.6 3.6 0.6 0.6 2.6 2.1 4.4 3.5 1.8 1.4 4.2 3.3 5.4 4.4 1.1 1 3.7 3 5.6 4.5 1.9 1.4 4.2 3.2 5 4 0.8 0.8 3.1 2.6 5 4 1.9 1.4 4.2 3.2 5 4 0.8 0.8 3.1 2.6 5 4 1.9 1.4 5.4 4.5 7.7 6.8 2.4 2.4 4.3 4.5 4.3 4.8 0 0.3 0.8 1.7 1.8 3.2 1 1.6 2.3 4.4 3 6.3 0.8 2.4 0.9 4.6 0.2 7-0.5 2.1-2.8 5.2-5.5 7.7-2.5 2.4-5.1 4.3-5.8 4.3-0.7 0-1.7 0.4-2.2 0.8-0.6 0.5-2.8 1.4-5 2-2.2 0.6-5.4 1.4-7 1.8-1.6 0.3-7.5 0.7-13 0.9-5.5 0.1-12.9-0.2-16.5-0.7-3.6-0.5-9.2-1.3-12.5-1.8-3.3-0.4-9.4-1.4-13.5-2.1-4.1-0.7-8-1.6-8.5-2.1-0.5-0.4-2.2-0.8-3.8-0.8-1.5 0-3.5-0.4-4.5-0.9-0.9-0.5-3.8-1.1-6.5-1.5-3.8-0.5-4.7-0.3-4.7 0.9 0 0.8 0.9 3.6 2.1 6.2 1.2 2.7 2.5 5.7 2.9 6.8 0.4 1.1 1.5 3.6 2.3 5.5 0.9 1.9 2 4.6 2.5 6 0.7 2 2.1 2.8 6.8 3.9 3.3 0.7 9.5 2.1 13.9 3.1 4.4 1 10.7 2.2 14 2.8 3.3 0.6 8.9 1.5 12.5 2.1 3.6 0.6 12 1.5 18.7 2.1 6.8 0.5 12.9 0.7 13.5 0.3 0.7-0.4 5-0.8 9.5-1 4.6-0.2 9.2-0.8 10.3-1.3 1.1-0.5 3.1-1 4.5-1 1.4 0 2.7-0.5 3-1 0.3-0.5 1.6-1 3-1 1.4 0 2.5-0.5 2.5-1 0-0.5 1-1 2.2-1 1.3 0 5.2-1.4 8.8-3.2 3.6-1.8 6.7-3.5 7-3.8 0.3-0.3 1.7-1.2 3.2-2 1.5-0.8 3.1-2.4 3.4-3.5 0.4-1.1 1.5-6.3 2.6-11.5 1-5.2 2.3-11.5 2.8-14 0.6-2.5 1.3-6.3 1.6-8.5 0.3-2.2 0.9-4.9 1.4-6 0.5-1.1 1.1-3.1 1.4-4.5 0.3-1.4 0.8-3.9 1.1-5.5 0.3-1.6 1-4.6 1.5-6.5 0.5-1.9 1.4-5.8 2-8.5 0.6-2.8 2-8.4 3-12.5 1-4.1 2.8-11.2 3.9-15.8 1.2-4.5 2.1-9.1 2.1-10.2 0-1.1 0.4-2.8 1-3.8 0.5-0.9 2.7-9.3 5-18.7 2.3-9.4 4.3-17.9 4.6-19 0.3-1.1 1.9-7.2 3.5-13.5 1.7-6.3 3.5-13.1 4-15 0.5-1.9 1.4-5.5 2-8 0.5-2.5 1.4-6.1 1.9-8 0.5-1.9 1.3-5.1 1.9-7 0.5-1.9 2.4-8.9 4.1-15.5 1.7-6.6 4-15.1 5-19 1-3.9 2.2-8.1 2.5-9.5 0.3-1.4 1.1-4.2 1.8-6.3 1.1-3.4 1.5-3.8 3.7-3.2 1.4 0.3 4.5 1.6 6.9 2.8 2.4 1.2 6.1 4.2 8.3 6.7 3.4 4 3.9 5.1 3.8 9.5 0 2.7-0.6 6.6-1.3 8.5-0.7 1.9-2 5.1-3 7-1 1.9-1.7 3.8-1.7 4.2 0 0.5-0.9 2.7-2 5-1.1 2.4-2 5.1-2 6 0 1-0.3 2-0.8 2.2-0.4 0.2-1 1.7-1.4 3.2-0.4 1.6-1.2 5.1-1.9 7.9-0.6 2.7-1.3 9.7-2 26l7.2 7c4 3.9 8.5 9 10.1 11.5 1.6 2.6 2.8 5.9 2.8 7.7 0 1.8-0.5 4.5-1.1 6-0.7 1.6-3 6.6-5.2 11.3-2.1 4.7-4.7 10.3-5.7 12.5-1 2.2-2.5 5.6-3.3 7.5-0.9 1.9-2.3 5.5-3.3 8-0.9 2.5-2.1 4.9-2.6 5.5-0.4 0.6-0.8 1.7-0.8 2.5 0 0.8-0.9 3.4-2 5.7-1.1 2.4-2 5-2 5.8 0 0.8-0.5 1.7-1 2-0.5 0.3-1 1.6-1 3 0 1.4-0.5 2.7-1 3-0.5 0.3-1 1.5-1 2.7 0 1.3-0.3 2.8-0.8 3.3-0.5 0.5-1.4 3-2.1 5.5-0.7 2.5-1.7 5.4-2.1 6.5-0.4 1.1-1.6 4.5-2.5 7.5-0.9 3-2.1 7.1-2.7 9-0.5 1.9-1.3 5.1-1.8 7-0.5 1.9-1.4 5.3-2 7.5-0.6 2.2-1.6 5.7-2.1 7.7-0.5 2.1-1.3 5.5-1.8 7.5-0.5 2.1-1.4 5.4-2 7.3-0.5 1.9-2.4 8.9-4.1 15.5-1.7 6.6-4 15.1-5 19-1 3.9-2.6 9.5-3.5 12.5-0.9 3-2.1 6.3-2.6 7.2-0.5 1-0.9 2.5-0.9 3.3 0 0.8-0.4 2.3-0.9 3.2-0.5 1-1.9 4.3-3 7.3-1.2 3-2.1 6.3-2.1 7.2 0 1-0.5 1.8-1 1.8-0.5 0-1 0.5-1 1 0 0.5-0.9 3.1-2.1 5.7-1.2 2.7-2.6 5.9-3.2 7.2-0.7 1.3-2.3 3.1-3.7 4-1.9 1.3-4.9 1.6-14.5 1.5-6.6-0.1-15.4-0.7-19.5-1.3-4.1-0.6-9.8-1.5-12.5-2-2.8-0.4-8.8-1.6-13.5-2.6-4.7-0.9-11.6-2.4-15.5-3.2-3.9-0.8-8.8-1.7-11-2-2.2-0.3-4.5-0.9-5-1.4-0.5-0.5-2.2-0.9-3.8-0.9-1.5 0-3.7-0.4-5-0.9-1.2-0.5-6.7-1.9-12.2-3.1-5.5-1.2-11.4-2.6-13-3.1-1.6-0.5-4.1-0.9-5.5-0.9-1.4 0-3-0.3-3.5-0.8-0.5-0.5-5.5-1.9-11-3.1-5.5-1.3-11.6-2.7-13.5-3.2-1.9-0.5-9.1-2.2-16-3.7-6.9-1.6-14.9-3.3-17.8-3.8-4.4-0.8-5.6-0.6-7.2 0.8-1.1 1-2.2 1.8-2.5 1.8-0.3 0-2.4 1.3-4.8 2.8-2.3 1.6-6.7 4-9.7 5.5-3 1.4-7.8 3.3-10.5 4.3-3.4 1.1-8.3 1.7-15 1.7-5.9 0.1-11.5-0.5-13.5-1.2-1.9-0.7-6.4-2.7-9.9-4.5-3.5-1.7-8.4-4.8-10.8-6.9-2.3-2-4.8-3.7-5.3-3.7-0.6 0-1-0.5-1-1 0-0.5-1.7-1.3-3.8-1.6-2-0.4-7.8-0.1-12.7 0.5-5 0.7-11.3 1.6-14 2.1-2.8 0.5-7.3 1.4-10 1.9-2.8 0.6-7 1.6-9.5 2.1-2.5 0.6-6.3 1.5-8.5 2-2.2 0.4-5.7 1.2-7.8 1.7-2 0.4-3.7 1.1-3.7 1.5 0 0.5-1.1 0.8-2.5 0.8-1.4 0-5.1 0.7-8.3 1.6-3.1 0.9-7.3 2-9.2 2.4-1.9 0.5-5.3 1.4-7.5 2-2.2 0.6-5.6 1.5-7.5 2-1.9 0.5-5.3 1.4-7.5 2-2.2 0.6-5.6 1.5-7.5 1.9-1.9 0.5-10 2.5-18 4.5-8 2-16.1 4.1-18 4.6-1.9 0.5-6.2 1.4-9.5 2-3.3 0.6-7.9 1.5-10.3 2-2.3 0.6-9.5 1-16 1-10.9 0-11.8-0.1-13.7-2.2-1.1-1.3-2.6-3.3-3.3-4.6-0.6-1.2-1.6-3-2.1-4-0.5-0.9-1.6-3.4-2.5-5.5-0.9-2-2.3-5.4-3.2-7.5-0.9-2-2-4.6-2.4-5.7-0.4-1.1-1.8-4.7-3-8-1.2-3.3-2.6-7-3.1-8.3-0.5-1.2-1.3-3.2-1.8-4.5-0.5-1.2-1.5-4-2.2-6.2-0.7-2.2-1.7-4.5-2.1-5-0.5-0.5-0.8-1.8-0.8-2.8 0-0.9-0.4-2.5-1-3.5-0.5-0.9-2.1-5.1-3.4-9.2-1.4-4.1-3.3-9.8-4.3-12.6-1-2.9-2.2-5.6-2.6-6-0.4-0.5-0.7-1.8-0.7-2.9 0-1.1-0.3-2.5-0.8-3-0.4-0.5-1.3-2.6-1.9-4.5-0.5-1.9-1.6-5.5-2.3-8-0.8-2.5-1.6-5-2-5.5-0.4-0.5-1.2-3-2-5.5-0.7-2.5-1.7-5-2.2-5.5-0.5-0.5-0.8-2-0.8-3.3 0-1.2-0.5-2.4-1-2.7-0.6-0.3-1-1.4-1-2.5 0-1.1-0.4-2.8-0.9-3.8-0.5-0.9-1.4-3.5-2-5.7-0.7-2.2-1.7-5.1-2.3-6.5-0.6-1.4-1.4-3.4-1.8-4.5-0.4-1.1-1.3-3.8-1.9-6-0.7-2.2-1.6-4.9-2.1-6-0.4-1.1-1.4-4-2.1-6.5-0.7-2.5-1.5-4.9-1.9-5.5-0.4-0.6-1.2-3-2-5.5-0.7-2.5-1.7-4.9-2.2-5.5-0.5-0.6-0.8-2-0.8-3.3 0-1.2-0.3-2.4-0.8-2.6-0.4-0.2-1.4-2.7-2.2-5.6-0.8-2.9-1.8-5.4-2.3-5.6-0.4-0.2-0.7-1.1-0.7-1.9 0-0.8-0.9-3.4-2-5.8-1.1-2.3-2-4.8-2-5.5 0-0.6-0.4-2-0.9-3-0.5-0.9-1.7-3.5-2.6-5.7-0.9-2.2-2.8-6.1-4.1-8.8-1.9-3.8-2.4-6.2-2.4-20.7l5.8-5.8c3.2-3.1 7.4-6.9 12.7-11.1l-0.3-13.3c-0.2-7.3-0.7-14.9-1.2-16.8-0.4-1.9-0.4-4.2 0.1-5 0.5-0.8 0.9-4 0.9-7 0-3 0.9-8.4 2.1-12 1.2-3.6 3.5-8.5 5.2-11 1.7-2.5 4.3-5.6 5.9-7 2.4-2.1 2.9-3.3 2.8-7-0.1-3.9 0.4-4.9 3.5-7.8 1.9-1.7 4.1-3.2 4.8-3.2 0.8 0 1.7-0.3 2.1-0.8 0.4-0.4 2.9-1.2 5.4-1.9 2.6-0.7 6.7-1.2 9.2-1.3 2.5 0 6.3-0.5 8.5-1 2.5-0.6 9.6-0.6 19.5 0 8.5 0.5 18.6 1.2 22.5 1.4 3.8 0.3 12.6 1 19.5 1.7 6.9 0.7 14.4 1.3 16.7 1.3 2.4 0.1 4.3-0.3 4.4-0.9 0.1-0.6-0.7-1.4-1.7-2-1.1-0.6-2.1-1.3-2.4-1.6-0.3-0.3-1.9-0.9-3.5-1.3-1.7-0.4-4.6-1.1-6.5-1.6-1.9-0.5-5.1-1.3-7-1.9-1.9-0.5-7.1-1.9-11.5-3.1-4.4-1.2-9.6-2.5-11.5-3-1.9-0.5-6.4-1.6-10-2.6-3.6-0.9-7.4-2-8.5-2.5-1.1-0.4-4.5-1.3-7.5-2-3-0.6-6.4-1.5-7.5-1.9-1.1-0.5-3.1-1.1-4.5-1.4-1.4-0.3-4.1-0.9-6-1.3-2.7-0.7-3.6-1.5-3.8-3.3-0.2-1.4 0.1-3.4 0.7-4.5 0.5-1.1 1.1-2.9 1.3-4 0.2-1.3 1.2-2.1 2.8-2.3 1.4-0.2 3.4 0.1 4.5 0.7 1.1 0.6 4.9 1.8 8.5 2.7 3.6 0.8 8.1 1.9 10 2.4 1.9 0.5 5.3 1.4 7.5 2 2.2 0.6 5.6 1.5 7.5 2 1.9 0.5 5.3 1.4 7.5 2 2.2 0.7 5.5 1.4 7.2 1.6 1.8 0.2 3.5 0.8 3.8 1.4 0.3 0.6 2.1 1 4 1 1.9 0 3.7 0.4 4 1 0.3 0.6 0.9 1 1.5 1 0.5 0 1-0.7 1-1.5 0-0.8-0.9-3.1-2-5-1.1-1.9-2-4.2-2-5 0-0.8-0.5-2.5-1-3.8-0.6-1.2-3.3-3.2-6.3-4.5-2.8-1.3-6.1-2.7-7.2-3.2-1.1-0.4-3.8-1.6-6-2.5-2.2-0.9-5.4-2.4-7-3.1-1.7-0.8-3.5-1.4-4-1.4-0.6 0.1-1.6-0.6-2.3-1.5-1-1.2-0.8-2.4 0.7-6.3 1-2.6 2.5-5.1 3.2-5.6 0.9-0.6 3-0.2 6.1 1.2 2.7 1.2 5.2 2.2 5.8 2.2 0.5 0 2.9 1 5.2 2.1 2.4 1.2 5.2 2.6 6.3 3.2 1.1 0.5 2.8 0.7 3.7 0.3 1-0.3 2.1-1.8 2.4-3.4 0.3-1.5 1.4-4.4 2.5-6.5 1-2 1.9-4.5 1.9-5.5 0-0.9-1-2.2-2.3-2.8-1.2-0.6-4.2-2.2-6.7-3.5-2.5-1.3-4.6-2.7-4.8-3.2-0.1-0.4-0.7-0.7-1.2-0.7-0.6 0-3.4-1.4-6.3-3.1-2.8-1.8-7.7-4.5-10.7-6.2-3-1.6-6.6-3.7-8-4.6-1.4-0.8-3.4-2.1-4.5-2.7-1.1-0.6-3.1-1.7-4.5-2.5-1.4-0.8-2.7-1.6-3-1.9-0.3-0.3-1.4-1-2.5-1.6-1.1-0.6-4-2.1-6.5-3.5-2.5-1.3-4.7-2.6-5-2.9-0.3-0.3-1.6-1.1-3-1.9-1.4-0.8-3.7-2.1-5.3-2.8-1.5-0.7-2.9-1.7-3.2-2.3-0.3-0.6 0.1-2 0.7-3.3 0.7-1.2 1.5-2.4 1.8-2.7 0.3-0.3 1.1-1.7 1.7-3.3 0.7-1.5 1.9-2.7 2.5-2.7 0.7 0 1.7 0.4 2.3 0.9 0.5 0.5 2.7 1.9 4.7 3 2.1 1.2 5.4 3 7.3 4.1 1.9 1.1 5 2.8 6.7 3.9 1.8 1 5.7 3.2 8.5 5 2.9 1.7 5.7 3.1 6.3 3.1 0.5 0 1 0.3 1 0.7 0 0.5 1 1.3 2.3 1.9 1.2 0.6 4.2 2.2 6.7 3.5 2.5 1.3 4.7 2.6 5 2.9 0.3 0.3 1.6 1.1 3 1.9 1.4 0.8 4 2.2 5.7 3.3 1.8 1 4.8 2.6 6.5 3.6 1.8 1.1 4.4 2.5 5.8 3.3 1.4 0.8 2.7 1.6 3 1.9 0.3 0.3 2.2 1.4 7.9 4.5l13.6-6.8-2.5-1.9c-1.4-1.1-4.3-3.3-6.4-5.1-2.1-1.8-4.4-3.4-5-3.6-0.6-0.3-2.5-1.7-4.1-3.3-1.7-1.5-3.5-2.8-4-2.8-0.6-0.1-1.7-0.9-2.5-1.9-0.8-1-2.7-2.5-4.3-3.4-1.5-0.9-2.7-2.3-2.7-3-0.1-0.6 0.9-2.1 2-3.2 1.1-1.1 2.1-2.3 2-2.8 0-0.4 0.9-1.7 2-3 1.9-2.1 2.1-2.1 3.7-0.5 1 1 2.2 1.8 2.8 1.8 0.5 0.1 1.7 0.9 2.5 1.8 0.8 1 3.1 2.9 5 4.2 1.9 1.4 4.6 3.5 6 4.7 1.4 1.3 2.8 2.3 3.2 2.3 0.5 0 2.5 1.6 4.5 3.5 2.1 1.9 4.1 3.5 4.5 3.5 0.5 0 1.8 1 3 2.3 1.3 1.2 3.8 3.1 5.6 4.2 1.8 1.1 3.2 2.3 3.2 2.7 0 0.5 4 0.8 9 0.8 4.9 0 9.2-0.3 9.5-0.8 0.2-0.4-9.8-10.7-22.3-23-12.5-12.3-26.9-26.4-32-31.3-5-4.9-9.2-9.3-9.2-9.9 0-0.6 2.1-3.1 9.5-10.2l40.5 40.4c22.3 22.2 41.9 41 43.5 41.7 1.6 0.7 3.8 1.7 4.7 2.2 1 0.5 2.5 0.9 3.3 0.9 0.8 0 1.5-0.6 1.5-1.3 0-0.6-1.3-2.6-2.8-4.2-1.5-1.7-3.9-4.6-5.2-6.5-1.3-1.9-2.7-3.7-3-4-0.3-0.3-2.1-2.5-4-5-1.9-2.5-3.8-4.6-4.2-4.8-0.4-0.1-0.8-0.8-0.8-1.5 0-0.6-1.4-2.7-3-4.5-1.7-1.7-3-3.5-3-4 0-0.4-1.3-2.1-2.8-3.7-1.5-1.7-3.9-4.6-5.2-6.5-1.3-1.9-3.2-4.2-4.2-5-0.9-0.8-1.7-1.9-1.8-2.5 0-0.6-1.6-2.7-3.5-4.8-1.9-2-3.5-4-3.5-4.5 0-0.4-1-1.8-2.3-3.2-1.2-1.4-3.4-4.1-4.7-6-1.3-1.9-3.1-4.2-3.8-5-0.8-0.8-1.9-2.3-2.3-3.3-0.7-1.2-0.3-2.3 1.2-3.7 1.1-1.1 2.4-2 2.7-2 0.4 0.1 1.6-0.8 2.6-2 1-1.1 2.2-2 2.5-2zm-17.7 107.7c-2.7 2.8-3.2 4-3.2 8 0 3.8 0.6 5.5 2.8 8 1.5 1.8 4.9 4.4 7.7 5.8 2.8 1.5 5.1 2.1 5.2 1.5 0.2-0.5 1.4-1 2.8-1 1.9 0 3.1-1 4.7-4 1.3-2.1 3.2-4.2 4.3-4.6 1.1-0.4 3.5-0.7 5.3-0.8 1.9 0 3.6 0.2 3.8 0.6 0.2 0.5 1.3 0.8 2.4 0.8 1.1 0 5.7 1.9 10.2 4.2 4.6 2.3 8.4 4.5 8.5 5 0.2 0.4 0.7 0.8 1.3 0.8 0.5 0 4.5 2.3 8.7 5.2 4.3 2.9 8.7 6 9.8 7 1.1 1 2.3 1.8 2.7 1.8 0.5 0 1.8 1 3.1 2.2 1.2 1.3 4 3.7 6.2 5.3 2.2 1.6 5.9 4.9 8.2 7.2 2.4 2.4 4.3 4.9 4.3 5.5 0 0.7 0.6 2.1 1.3 3 0.7 1 1.5 1.7 1.9 1.8 0.5 0 1-1.1 1.3-2.5 0.3-1.4 2.7-4.8 5.5-7.5 2.7-2.8 5.4-5 6-5 0.5 0 2.1-0.8 3.5-1.8 2.5-1.7 2.5-1.7 0.5-3-1.1-0.6-3.2-1.3-4.8-1.4-1.5-0.1-4.2 0.5-6 1.3-1.8 0.8-3.3 1.7-3.2 2.1 0 0.5-0.9 0.8-2 0.8-1.1 0-2.8-1-3.8-2.1-0.9-1.2-2.7-3.2-4-4.5-1.2-1.3-2.2-2.7-2.2-3.2 0-0.4-3.3-3.8-7.3-7.7-4.1-3.9-8.7-8.1-10.3-9.5-1.6-1.4-5-4.1-7.4-6-2.5-1.9-5.5-4.5-6.8-5.7-1.2-1.3-4.9-3.9-8.2-5.8-3.3-1.9-6.5-3.5-7-3.5-0.6 0-1-0.3-1-0.8 0-0.4-2-1.4-4.6-2.2-2.6-0.8-4.8-1.8-5-2.3-0.2-0.4-5.5-0.7-11.7-0.7-9.4 0.1-11.9 0.4-15.7 2.3-2.5 1.2-6 3.6-7.8 5.4zm141.2 92.1c-0.9 1.2-0.9 2.2-0.1 3.7 0.5 1.1 1.6 2.4 2.2 3 0.6 0.6 3.4 3.7 6.1 7 2.7 3.3 5.5 6.9 6.1 8 0.7 1.1 2.2 3.8 3.3 6 1.1 2.2 2 4.8 2 5.7 0 1 0.4 2 1 2.3 0.6 0.3 1 3 1 6 0 3-0.4 5.7-1 6-0.6 0.3-1 1.6-1 3 0 1.4-0.4 3.4-1 4.5-0.6 1.1-1.4 2.9-2 4-0.6 1.1-1 2.4-1 3 0 0.6-1.3 3.8-2.9 7.2-1.6 3.5-3.6 8.1-4.6 10.3-1 2.2-3.7 7.8-6 12.5-2.3 4.7-4.8 9.6-5.6 11-0.8 1.3-2 2.9-2.6 3.5-0.7 0.5-3.4 1.6-6 2.3-2.7 0.8-5.8 1.8-7.1 2.3-1.2 0.5-3.3 0.9-4.7 0.9-1.4 0-2.7 0.4-3 1-0.3 0.6-1.4 1-2.5 1-1.1 0-2.8 0.4-3.8 0.9-0.9 0.5-3.3 1.4-5.2 2-1.9 0.6-4.5 1.1-5.8 1.1-1.2 0-2.4 0.4-2.7 1-0.3 0.6-1.8 1-3.3 1-1.6 0-3.2 0.3-3.6 0.7-0.5 0.5-2.5 1.4-4.5 2-2 0.7-4.6 1.3-5.9 1.3-1.2 0-2.2 0.4-2.2 1 0 0.6-1 1.3-2.3 1.6-2.1 0.6-2.1 0.6-0.2 1.1 1.1 0.3 2.4 0.9 3 1.4 0.6 0.5 1.8 0.9 2.7 0.9 1 0 2.6 0.4 3.5 0.8 1 0.5 2.8 1.4 4 2 1.3 0.7 3.4 1.2 4.8 1.2 1.4 0 2.5 0.4 2.5 1 0 0.6 0.9 1 2 1 1.1 0 2.2 0.4 2.5 1 0.3 0.6 1.6 1 3 1 1.4 0 2.5 0.4 2.5 1 0 0.6 1 1 2.2 1 1.3 0 2.7 0.3 3.3 0.8 0.6 0.4 2.8 1.4 5 2.1 2.2 0.7 5.1 1.7 6.5 2.3 1.4 0.6 3.3 1.4 4.2 1.9 1 0.5 2.5 0.9 3.3 0.9 0.8 0 2.3 0.4 3.2 1 1 0.5 4.7 1.9 8.3 3.1 3.6 1.2 6.9 2.5 7.5 3 0.6 0.5 1.9 0.9 3 0.9 1.1 0 2.4 0.3 3 0.8 0.6 0.4 2.8 1.4 5 2.1 2.2 0.7 5.1 1.7 6.5 2.3 1.4 0.6 3.3 1.4 4.2 1.9 1 0.5 2.7 0.9 3.8 0.9 1.1 0 2.2 0.3 2.4 0.7 0.2 0.5 2.7 1.5 5.6 2.3 2.9 0.8 5.4 1.8 5.6 2.2 0.2 0.5 1.5 0.8 2.9 0.8 1.4 0 2.5 0.4 2.5 1 0 0.6 1.1 1 2.5 1 1.4 0 2.7 0.4 3 1 0.3 0.6 1.2 1 2 1 0.8 0 3.4 0.9 5.7 2 2.4 1.1 5.1 2 6 2 1 0 2 0.3 2.2 0.7 0.2 0.5 2.7 1.5 5.6 2.3 2.9 0.8 5.4 1.8 5.6 2.2 0.2 0.5 1.5 0.8 2.9 0.8 1.4 0 2.7 0.5 3 1 0.3 0.5 1.6 1 3 1 1.4 0 2.5 0.3 2.5 0.7 0 0.5 2.3 1.5 5.1 2.3 2.8 0.8 5.3 1.8 5.5 2.2 0.2 0.5 1.5 0.8 2.9 0.8 1.4 0 2.5 0.5 2.5 1 0 0.5 1.4 1 3 1 1.6 0 3 0.5 3 1 0 0.5 0.7 1 1.5 1 0.8 0 2.3 0.4 3.2 0.9 1 0.5 5.2 1.9 9.3 3.1 4.1 1.3 8.3 2.7 9.2 3.1 1 0.5 2.6 0.9 3.5 0.9 1 0 3.4 0.5 5.3 1.2 1.9 0.6 4.4 1.4 5.5 1.8 1.1 0.5 4.9 1.4 8.5 2 3.6 0.7 7.6 1.6 9 2.1 1.4 0.5 5 1 8 1.1 3 0.1 6 0.5 6.5 1 0.5 0.5 5.3 0.7 10.5 0.4 5.2-0.2 10.9-0.7 12.5-1.1 1.6-0.4 4.5-1.8 6.2-3.1 1.8-1.3 3.3-3.2 3.3-4.2 0-0.9 0.5-2.2 1.1-2.7 0.8-0.7 0.4-2-1.3-4.4-1.2-1.9-3.4-4.5-4.8-5.8-1.4-1.2-2.8-2.3-3.3-2.3-0.4 0-1.3-0.6-2.1-1.3-0.8-0.6-2.8-2.3-4.6-3.7-1.8-1.4-4.8-4-6.8-5.7-2.1-1.8-4-3.3-4.5-3.3-0.4 0-2.4-1.6-4.5-3.5-2-1.9-3.9-3.5-4.2-3.5-0.3 0-1.6-0.9-3-2.1-1.4-1.2-4.1-3.3-6-4.8-1.9-1.4-4.6-3.6-6-4.9-1.4-1.2-2.7-2.2-3-2.2-0.3 0.1-2.8-2-5.5-4.4-2.8-2.5-5.6-4.6-6.3-4.6-0.6 0-1.3-0.3-1.5-0.8-0.1-0.4-2.2-2.3-4.7-4.2-2.5-1.9-5-3.9-5.6-4.5-0.6-0.5-2.2-1.7-3.4-2.5-1.2-0.8-4.3-3.4-6.9-5.7-2.5-2.4-4.9-4.3-5.4-4.3-0.4 0-4.4-3-9-6.6-4.5-3.6-8.9-7.1-9.7-7.7-0.8-0.7-3.5-2.8-6-4.7-2.5-1.9-5.2-4.1-6-4.9-0.8-0.8-3.1-2.6-5-4-1.9-1.4-3.7-2.8-4-3.1-0.3-0.3-2.2-1.6-4.2-3-2.1-1.4-3.8-2.8-3.8-3.3 0-0.4-1.8-0.7-4-0.7-2.2 0-4.2 0.4-4.5 1-0.3 0.6-2.1 1-4 1-1.9 0-3.7 0.4-4 1-0.3 0.6-1.9 1-3.5 1-1.6 0-3.2 0.4-3.5 1-0.3 0.6-2 1.2-3.8 1.5-1.7 0.2-4.7 0.8-6.6 1.2-1.9 0.4-3.6 1.5-3.9 2.3-0.3 0.8 0 2.3 0.7 3.2 0.6 1 1.1 3.6 1.1 5.8 0 2.2-0.6 4.6-1.3 5.2-0.7 0.7-2.2 1.8-3.2 2.4-1.1 0.6-4.9 1-8.5 0.9-3.6-0.1-7.9-0.5-9.5-0.9-1.6-0.4-5.8-2.2-9.3-3.9-4.1-2.1-6.3-3.8-6.2-5 0-1.4 0.9-1.7 4.5-1.7 2.5 0 5.5-0.5 6.7-1.1 1.3-0.5 3.8-3.2 5.5-6 1.8-2.7 3.3-5.6 3.3-6.4 0-0.8 0.4-1.7 1-2 0.6-0.3 1-1.7 1-3.3 0-1.5 0.4-3.1 0.8-3.7 0.5-0.6 1.9-4.7 3.1-9.3 1.1-4.5 2.1-9.7 2.1-11.5 0-1.7 0.4-3.6 0.9-4.2 0.5-0.6 1.2-4.4 1.6-8.5 0.3-4.1 0.8-10.2 1.1-13.5 0.3-3.3 0.1-6.9-0.4-8-0.5-1.1-1.9-4.1-3.1-6.8-1.1-2.6-2.5-5.3-3.1-6-0.5-0.6-2.1-2.7-3.5-4.5-1.4-1.7-3.1-3.2-3.8-3.2-0.6 0-1.8-0.9-2.6-2-0.7-1.1-2.2-2-3.2-2-1.1 0-1.9-0.4-1.9-1 0-0.6-1.2-1-2.8-1-1.5 0-3.2-0.4-3.7-0.9-0.7-0.5-2-0.5-3.5 0-1.3 0.5-3 1.7-3.6 2.7zm-284.6 86.9c0.1 1.2 0.7 2.5 1.2 2.8 0.6 0.3 1 1.9 1 3.5 0 1.6 0.3 3 0.8 3 0.4 0 1.3 2.4 2 5.2 0.7 2.9 2.5 8.9 4.1 13.3 1.5 4.4 3.4 10 4.1 12.5 0.6 2.5 1.6 5.3 2.1 6.2 0.5 1 0.9 2.6 0.9 3.5 0 1 0.3 2.2 0.8 2.8 0.5 0.6 1.4 3 2.1 5.5 0.7 2.5 1.7 5.3 2.2 6.2 0.5 1 0.9 2.7 0.9 3.8 0 1.1 0.5 2.2 1 2.5 0.6 0.3 1 1.6 1 3 0 1.4 0.5 2.7 1 3 0.6 0.3 1 1.6 1 3 0 1.4 0.5 2.7 1 3 0.6 0.3 1 1.6 1 3 0 1.4 0.5 2.7 1 3 0.6 0.3 1 1.6 1 3 0 1.4 0.5 2.7 1 3 0.6 0.3 1 1.5 1 2.7 0 1.3 0.3 2.8 0.8 3.3 0.5 0.5 1.4 3 2.1 5.5 0.7 2.5 1.7 5.3 2.2 6.2 0.5 1 0.9 2.7 0.9 3.8 0 1.1 0.5 2.2 1 2.5 0.6 0.3 1 1.6 1 3 0 1.4 0.5 2.7 1 3 0.6 0.3 1 1.6 1 3 0 1.4 0.5 2.7 1 3 0.6 0.3 1 1.6 1 3 0 1.4 0.5 2.7 1 3 0.6 0.3 1 1.6 1 3 0 1.4 0.5 2.7 1 3 0.6 0.3 1 1.6 1 3 0 1.4 0.3 2.7 0.8 2.9 0.4 0.2 1.4 2.7 2.2 5.6 0.8 2.9 1.8 5.4 2.3 5.6 0.4 0.2 0.7-1.2 0.7-3.1 0-1.9-0.4-3.7-1-4-0.5-0.3-1-2.1-1-4 0-1.9-0.4-3.7-1-4-0.5-0.3-1-2.1-1-4 0-1.9-0.4-3.5-1-3.5-0.5 0-1.2-1.9-1.4-4.3-0.2-2.3-0.9-6-1.4-8.2-0.6-2.2-2-7.4-3.1-11.5-1.2-4.1-2.4-9.1-2.7-11-0.3-1.9-0.9-4.4-1.4-5.5-0.5-1.1-1.1-3.4-1.5-5-0.4-1.6-0.9-4.8-1.2-7-0.3-2.2-0.9-4.4-1.4-5-0.5-0.6-0.9-2.5-0.9-4.3 0-1.7-0.4-3.4-1-3.7-0.5-0.3-1-2.1-1-4 0-1.9-0.4-3.7-1-4-0.5-0.3-1.2-2.2-1.5-4.3-0.3-2-0.8-5.4-1-7.5-0.3-2-0.9-3.9-1.5-4.2-0.5-0.3-1-1.9-1-3.5 0-1.6-0.4-4-0.9-5.3-0.5-1.2-1.5-4.9-2.1-8.2-0.7-3.3-1.6-7.1-2-8.5-0.4-1.4-1.2-4.3-1.8-6.5-0.6-2.2-1.6-6.3-2.3-9-0.6-2.8-1.6-6.5-2.3-8.3-1-3-1.4-3.2-5.6-3.1-2.5 0-5.6 0.5-7 1.1-1.7 0.8-2.4 1.8-2.2 3.5zm606.5 16.3c-0.8 2.5-1.7 6.5-2.1 8.9-0.4 2.4-1 4.5-1.5 4.7-0.4 0.2-0.7 2-0.7 3.9 0 1.9-0.5 3.7-1 4-0.5 0.3-1 2.3-1 4.5 0 2.2-0.5 4.2-1 4.5-0.5 0.3-1 2.3-1 4.5 0 2.2-0.5 4.2-1 4.5-0.5 0.3-1 2.1-1 4 0 1.9-0.5 3.5-1 3.5-0.5 0-1 1.8-1 4 0 2.2-0.5 4-1 4-0.5 0-1.2 1.8-1.5 4-0.3 2.2-0.7 5.8-1 8-0.3 2.2-1 4-1.5 4-0.5 0-1.2 1.9-1.4 4.2-0.2 2.4-0.9 6.3-1.6 8.8-0.6 2.5-1.4 5.9-1.6 7.5-0.3 1.6-0.9 3.9-1.4 5-0.5 1.1-1.1 3.4-1.5 5-0.3 1.6-1 4.8-1.6 7-0.5 2.2-1.3 6-1.7 8.4-0.4 2.4-1 4.5-1.5 4.7-0.4 0.2-0.7 2-0.7 3.9 0 1.9-0.5 3.7-1 4-0.5 0.3-1 2.1-1 4 0 1.9-0.5 3.5-1 3.5-0.5 0-1 1.6-1 3.5 0 1.9-0.5 3.7-1 4-0.5 0.3-1 2.2-1 4.2l0.1 3.8c3-6.2 3.9-8.8 3.9-9.8 0-0.9 0.5-1.9 1-2.2 0.5-0.3 1-1.6 1-3 0-1.4 0.5-2.5 1-2.5 0.5 0 1-1.4 1-3 0-1.6 0.5-3.2 1-3.5 0.5-0.3 1-1.4 1-2.5 0-1.1 0.4-2.8 0.9-3.8 0.5-0.9 1.4-2.8 1.9-4.2 0.6-1.4 3.8-10.7 7.2-20.8 3.3-10 6-18.9 6-19.7 0-0.8 0.5-2.5 1.2-3.8 0.6-1.2 1.5-3 2-4 0.4-0.9 0.8-2.8 0.8-4.2 0-1.4 0.5-2.5 1-2.5 0.5 0 1-1.2 1-2.8 0-1.5 0.3-3.1 0.7-3.6 0.4-0.4 1.4-2.5 2-4.5 0.7-2 1.3-4.4 1.3-5.4 0-0.9 0.5-1.7 1-1.7 0.5 0 1-1.4 1-3 0-1.6 0.5-3.2 1-3.5 0.5-0.3 1-1.6 1-3 0-1.4 0.5-2.7 1-3 0.5-0.3 1-1.6 1-3 0-1.4 0.4-3.3 1-4.3 0.5-0.9 2.8-7.2 5-14 2.2-6.7 4-13.1 4-14.2 0-1.1 0.5-2 1-2 0.5 0 1-0.8 1-1.8 0-0.9-1.1-2.7-2.5-4-1.8-1.6-3.7-2.2-7-2.2-4.4 0-4.5 0.1-5.6 4.2-0.7 2.4-1.8 6.3-2.6 8.8zm-486.5 97.3c0.1 0.4 1.5 2.1 3.2 3.7 1.6 1.6 3.3 3 3.7 3 0.5 0 14.1-13.4 30.4-29.7 28.9-29 29.7-30 31.4-35.8 1-3.3 2.2-6.5 2.7-7 0.4-0.6 0.8-2 0.8-3.3 0-1.2-0.3-2.2-0.8-2.2-0.4 0-16.7 15.9-36.2 35.3-19.5 19.3-35.4 35.5-35.2 36zm75.2-39.3c-1.9 2.5-3.7 4.7-4 5-0.3 0.3-1.7 2.1-3 4-1.4 1.9-3.5 4.6-4.7 6-1.3 1.4-2.3 2.7-2.3 3 0 0.3-0.9 1.6-2.1 3-1.2 1.4-3.3 4.1-4.8 6-1.4 1.9-2.8 3.7-3.1 4-0.3 0.3-1.7 2.1-3 4-1.3 1.9-3.7 5-5.4 6.7l-3.1 3.3c3.1 3.1 4.6 4.1 5.2 4 0.7 0 1.3 0.5 1.3 1 0 0.5 0.7 1 1.5 1 0.8 0 1.9-0.8 2.4-1.8 0.4-0.9 1.5-2.4 2.3-3.2 0.7-0.8 2.5-3.1 3.8-5 1.3-1.9 3.7-4.9 5.2-6.5 1.5-1.6 2.8-3.6 2.8-4.3 0-0.6 0.4-1.3 0.8-1.5 0.4-0.1 2.3-2.2 4.2-4.7 1.9-2.5 3.7-4.7 4-5 0.3-0.3 1.7-2.1 3-4 1.3-1.9 3.7-4.9 5.2-6.5 1.5-1.6 2.8-3.3 2.8-3.8 0-0.4 1.3-2.2 3-4 1.6-1.7 3-3.8 3-4.5 0-0.6-1.5-1.7-3.3-2.2-1.7-0.6-3.9-1-4.7-1-0.8 0.1-2 0.6-2.5 1.3-0.6 0.7-2.6 3.2-4.5 5.7zm26.8 3.8c0.1 0.7-0.1 1.2-0.6 1.2-0.4 0-1.2 1-1.8 2.3-0.6 1.2-2.2 4.2-3.5 6.7-1.3 2.5-2.6 4.7-2.9 5-0.3 0.3-1.1 1.6-1.9 3-0.8 1.4-2.2 4-3.3 5.7-1 1.8-2.7 5-3.9 7l-2.1 3.8c4.4 3.5 6.5 4.5 7.4 4.5 1 0 2.1-0.8 2.5-1.8 0.3-0.9 0.9-1.9 1.2-2.2 0.3-0.3 1.2-1.6 2-3 0.8-1.4 2.4-4.3 3.5-6.5 1.2-2.2 2.3-4.2 2.6-4.5 0.3-0.3 1.1-1.6 1.9-3 0.8-1.4 2.2-4 3.3-5.8 1-1.7 2.7-4.9 3.9-7 1.2-2 2.5-4.3 3-5 0.5-0.6 0.7-1.7 0.4-2.2-0.3-0.6-2.1-1-4-1-1.9 0-3.6-0.5-3.8-1.1-0.1-0.6-1.1-0.2-2.2 0.9-1 1-1.8 2.4-1.7 3zm19.2 14.7c-0.4 1.1-1.5 3.6-2.3 5.5-0.8 1.9-2.8 6.6-4.3 10.5-1.5 3.9-3.1 7.5-3.6 8-0.4 0.5-0.8 1.6-0.8 2.2 0 0.7-1.4 4.2-3 7.8-1.7 3.6-3 6.8-3 7.2 0 0.5-0.6 2.2-1.4 3.8-0.7 1.6-2.1 4.8-3.1 7-0.9 2.2-2.1 4.8-2.6 5.7-0.5 1-0.7 2.3-0.4 2.8 0.3 0.5 2.2 1.7 4.2 2.5 2.1 0.9 4 1.5 4.3 1.5 0.3 0 1.1-1.7 1.8-3.7 0.7-2.1 2.3-5.8 3.4-8.3 1.1-2.5 2.4-5.4 2.8-6.5 0.4-1.1 1.5-3.6 2.3-5.5 0.9-1.9 3-7.1 4.7-11.5 1.7-4.4 3.8-9.6 4.7-11.5 0.8-1.9 1.9-4.4 2.3-5.5 0.4-1.1 1.5-3.6 2.3-5.5 0.9-1.9 2.3-5.5 3.3-8 0.9-2.5 2.1-5.1 2.6-5.8 0.4-0.6 0.6-1.9 0.3-2.7-0.3-0.9-1.7-1.5-3.3-1.5-1.5 0-3.2-0.5-3.7-1.1-0.8-0.9-1.8 0.5-3.9 4.7-1.5 3.2-3.2 6.8-3.6 7.9zm24.6 0.5c-0.2 1.4-1 4.3-1.6 6.5-0.6 2.2-1.5 5.6-2 7.5-0.5 1.9-1.2 4.9-1.5 6.5-0.4 1.6-1 3.9-1.5 5-0.5 1.1-1.1 3.4-1.5 5-0.3 1.6-1 4.6-1.5 6.5-0.4 1.9-1.6 6.4-2.5 10-0.9 3.6-2 7.3-2.6 8.2-0.5 1-0.9 3.2-0.9 4.8 0 1.6-0.3 3.2-0.8 3.4-0.4 0.2-1 1.7-1.4 3.2-0.3 1.6-1.1 4.5-1.6 6.4-0.6 1.9-2 7.1-3.1 11.5-1.2 4.4-2.1 8.2-2.1 8.5 0 0.3 1.9 1.1 4.2 1.8 3.1 0.9 4.6 1 5.3 0.2 0.5-0.6 2.3-6.2 3.8-12.3 1.6-6.2 3.1-12.3 3.4-13.7 0.2-1.4 0.9-3.4 1.4-4.5 0.4-1.1 1-3.1 1.2-4.5 0.2-1.4 0.7-3.2 1-4 0.3-0.8 1.3-4.4 2.2-8 0.9-3.6 2.1-8.1 2.6-10 0.6-1.9 1.4-5.1 1.9-7 0.5-1.9 1.3-5.1 1.9-7 0.5-1.9 1.9-7.1 3.1-11.5 1.2-4.4 2.5-9.6 2.9-11.5 0.4-1.9 0.6-4.3 0.6-5.3-0.1-1-1-1.7-2.1-1.7-1 0-2.8-0.3-3.9-0.6-1.5-0.4-2.4 0.1-3.2 1.8-0.6 1.3-1.4 3.4-1.7 4.8zm22.2 6c0.1 2.7 0 5.8-0.1 6.7-0.2 1-0.7 2.5-1 3.3-0.3 0.8-0.9 4.4-1.2 8-0.3 3.6-1 9.4-1.4 13-0.5 3.6-1.4 9.8-2 13.7-0.6 4-1 7.6-0.9 8 0.1 0.5-0.1 1.9-0.5 3.3-0.3 1.4-0.9 5.6-1.2 9.5-0.4 5.3-0.3 7.1 0.7 7.3 0.7 0.1 2.8 0.4 4.7 0.5 2.9 0.2 3.5-0.2 4.2-2.3 0.4-1.4 1.2-7.2 1.8-13 0.7-5.8 1.6-12.8 2.2-15.5 0.5-2.8 1-7.7 1.1-11 0.1-3.3 0.5-6.5 0.9-7 0.4-0.5 1-3.9 1.3-7.5 0.4-3.6 1-9.6 1.4-13.4 0.4-4.2 0.3-7.4-0.3-8.1-0.6-0.7-2-1.5-3.1-1.7-1.2-0.3-3.2-0.1-4.5 0.3-2 0.7-2.2 1.4-2.1 5.9zm24.5 69.3c0.6 0.9 1 0.9 1.3-0.1 0.2-0.6 1.3-1.2 2.4-1.2 1.1 0 2-0.5 2-1 0-0.5 0.9-1 2-1 1.1 0 2-0.5 2-1 0-0.5 0.9-1 2-1 1.1 0 2-0.5 2-1 0-0.5 0.9-1 2-1 1.1 0 2.2-0.5 2.5-1 0.3-0.5 1.3-1 2.2-1 1 0 3.1-0.5 4.6-1.2 2.5-1.2 2.8-1.7 2.2-4.8-0.4-1.9-0.9-6.6-1.2-10.5-0.2-3.9-0.8-7.5-1.3-8-0.4-0.5-0.8-4.1-0.9-8-0.1-3.9-0.6-7.5-1.1-8-0.6-0.5-1-3.1-1-5.8 0-4.2-0.3-4.8-2.8-5.8-1.5-0.6-4.2-1.5-6-2-1.7-0.5-4.7-1.3-6.5-1.8-1.7-0.5-3.9-1.2-4.8-1.6-1.4-0.6-1.6 2.8-2 32.5-0.2 18.3 0 33.7 0.4 34.3zm37.4-43.3c0.3 3.6 0.8 7.2 1.2 8 0.4 0.8 0.9 3.7 1 6.5 0.1 2.7 0.7 6.9 1.4 9.3l1.2 4.3c14.8-0.6 15-0.7 14.8-3.1 0-1.4-0.6-4.3-1.3-6.5-0.6-2.2-1.4-5.1-1.6-6.5-0.3-1.4-0.9-3.4-1.3-4.5-0.5-1.1-1.3-3.6-1.9-5.5-0.7-1.9-1.2-4.6-1.2-6 0-1.4-0.6-3.3-1.3-4.2-0.7-1-2-1.7-3.1-1.8-1 0-2.1-0.4-2.5-0.9-0.3-0.5-2.1-1.2-3.9-1.6-3.3-0.7-3.3-0.7-2.7 2.6 0.3 1.9 0.8 6.3 1.2 9.9zm27.3-2c0.5 0 1 1.6 1 3.5 0 1.9 0.5 3.7 1 4 0.5 0.3 1.2 2 1.4 3.7 0.3 1.8 0.9 5.1 1.5 7.3 0.5 2.2 1.4 5.6 1.8 7.5 0.8 3.3 1.2 3.5 5.8 4.2 2.8 0.3 6.8 0.9 9 1.4q4 0.7 4.7-0.5c0.5-0.6 0.5-1.1 0-1.1-0.4 0-1.4-2.2-2.2-5-0.8-2.8-1.7-5-2-5-0.3 0-1.2-2.2-2-5-0.8-2.8-1.8-5-2.3-5-0.4 0-0.7-0.6-0.7-1.3 0-0.6-0.5-2.4-1.2-3.9-0.7-1.5-2.2-3.1-3.3-3.6-1.1-0.5-3.6-1.4-5.5-2-1.9-0.7-4.5-1.2-5.8-1.2-1.2 0-2.2 0.5-2.2 1 0 0.5 0.4 1 1 1zm470.4-405.3l0.6 539.3h-7.5c-5.3 0-7.5-0.4-7.5-1.2 0-0.7-0.1-121.9-0.2-269.2-0.1-187.6 0.2-268.2 0.9-268.5 0.6-0.3 3.9-0.6 13.7-0.4zm394.1 404.8c3.8 0.2 8.6 1 10.5 1.8 1.9 0.8 4.9 2.8 6.6 4.4 1.7 1.5 4.5 4.8 6.1 7.3 1.6 2.5 3.4 6.6 4.1 9.2 0.8 3.1 1.2 13.3 1.2 29 0 13.7-0.5 26.1-1.1 28.3-0.5 2.2-2 6-3.2 8.4-1.2 2.4-4 6-6.3 8-2.2 2-6.1 4.2-8.5 5-2.4 0.7-5.3 1.6-6.4 2-1.1 0.4-4.7 0.4-8-0.1-3.3-0.4-7.3-1.3-9-2-1.7-0.6-3.8-1.7-4.8-2.5-0.9-0.7-2-1.1-2.5-0.9-0.4 0.2-0.8 8.4-0.9 36.1l-16.3 0.5v-133l2.7-0.1c1.6-0.1 3.9-0.1 5.3-0.1 1.4 0.1 3.1 0.4 3.7 0.7 0.7 0.3 1.3 1.9 1.3 3.5 0 1.6 0.3 3 0.7 3 0.4 0 1.7-0.9 2.8-2 1.1-1.1 3.6-2.8 5.5-3.7 1.9-0.9 4.8-2 6.5-2.4 1.7-0.5 6.2-0.6 10-0.4zm-17.2 20.2c-1 1.5-2.5 4.1-3.3 5.7-1.2 2.3-1.5 7.7-1.5 26l0.1 23.1c4.2 7.2 6.9 9.9 9.3 11.2 2.3 1.3 5.7 2.3 7.6 2.3 1.9 0 5.6-1 8.2-2.3 2.6-1.2 4.8-3 5-4 0.2-0.9 0.6-1.7 1-1.7 0.5 0 1.4-1.7 2-3.7q1.3-3.8 1.3-25.6c0-11.9-0.4-22.5-0.9-23.5-0.5-0.9-1.6-3.3-2.4-5.2-1-2.2-3-4.3-5.6-5.8-2.6-1.4-5.7-2.2-8.4-2.1-2.3 0-5.6 0.7-7.4 1.4-1.7 0.8-4 2.7-5 4.2zm-937.1-478.5c1-0.1 1.8-0.1 1.9 0 0 0.2 0.3 3.2 0.5 6.8 0.3 3.6 0.7 7.2 1 8 0.3 0.8 0.8 4 1 7 0.3 3 0.9 7.6 1.4 10.2 0.6 2.7 1 6.7 1 9 0 2.4 0.3 4.7 0.7 5.1 0.5 0.5 1 3.9 1.1 7.5 0.2 3.7 0.7 7.1 1.1 7.7 0.4 0.6 0.8 3.9 1 7.5 0.2 3.6 0.6 7.2 1 8 0.5 0.8 0.9 4.2 1 7.5 0.2 3.3 0.4 6.2 0.6 6.5 0.2 0.3 0.6 3 0.9 6 0.4 3 0.9 7.1 1.2 9 0.5 3.3 0.3 3.5-2.8 4.3-1.8 0.4-5 0.7-7.1 0.7-2 0-3.7-0.3-3.7-0.8 0-0.4-0.4-4.3-1-8.7-0.5-4.4-1.4-11.4-2-15.5-0.6-4.1-1.3-10.2-1.6-13.5-0.4-3.3-0.9-6.9-1.4-8-0.4-1.1-0.8-4.7-0.9-8-0.1-3.3-0.4-6.3-0.7-6.8-0.2-0.4-0.7-3.7-1-7.5-0.4-3.7-1-7.5-1.5-8.5-0.5-0.9-0.9-3.8-0.9-6.5 0-2.6-0.4-6.5-0.9-8.7-0.5-2.2-1.1-6.9-1.6-17l5-0.6c2.7-0.3 5.8-0.7 6.7-0.7zm-64.3 17.1c0.9 0.5 1.5 1.6 1.3 2.3-0.1 0.8 1.2 4.3 2.8 7.9 1.6 3.6 3 6.9 3 7.5 0 0.5 0.4 1.8 0.9 2.7 0.5 1 1.6 3.5 2.5 5.5 0.9 2.1 2.3 5.5 3.2 7.5 0.9 2.1 2 4.7 2.4 5.8 0.4 1.1 1.7 4.1 2.9 6.7 1.2 2.7 2.1 5.2 2.1 5.8 0 0.6 1 2.9 2.1 5.2 1.2 2.4 2.5 5.2 2.9 6.3 0.4 1.1 1.2 3.1 1.7 4.5 0.6 1.4 1.5 3.7 2.2 5.2 0.6 1.6 1.5 3.8 2 5 0.5 1.3 1.6 4 2.5 6 0.9 2.1 2.3 5.5 3.2 7.5 0.9 2.1 2 4.6 2.5 5.5 0.5 1 0.9 2.4 0.9 3 0 0.7-1.2 1.9-2.7 2.7-1.6 0.7-3.6 1.7-4.6 2.2-0.9 0.5-2.6 0.9-3.7 0.9-1.1 0-2.3-0.8-2.6-1.8-0.3-0.9-1.2-3.2-2-5-0.8-1.7-2.1-4.9-3-7-0.9-2-2-4.6-2.4-5.7-0.4-1.1-2.3-5.6-4.1-10-1.8-4.4-3.7-8.4-4.1-9-0.5-0.6-0.8-1.6-0.8-2.3 0-0.6-0.9-3.3-2.1-6-1.2-2.6-2.4-5.6-2.9-6.7-0.4-1.1-1.7-3.9-2.9-6.3-1.1-2.3-2.1-4.6-2.1-5.2 0-0.6-0.9-3.1-2.1-5.8-1.2-2.6-2.6-5.8-3.1-7.2-0.6-1.4-1.4-3.4-1.8-4.5-0.5-1.1-1.6-3.8-2.5-6-1-2.2-2.4-5.3-3.2-7-0.8-1.7-1.3-3.9-1.1-4.9 0.2-1 1-2.2 1.8-2.6 0.8-0.4 2.6-1.2 4-1.8 1.4-0.6 3.1-1.2 3.9-1.5 0.8-0.2 2.1 0 3 0.6zm1251.6 31.7c4.9 0 6.6 0.4 7 1.5 0.3 0.8 0.5 2.3 0.5 3.2-0.1 1 0.9 2.7 2.1 3.8 1.6 1.5 3.3 1.9 6.8 1.8 3.7-0.2 5.1-0.8 6.8-3 1.3-1.6 2.3-3.8 2.3-5.1 0-2.1 0.4-2.2 13-2.2l-0.6 5.2c-0.4 3.3-1.5 6.6-3 8.5-1.3 1.8-3.9 4.4-5.6 5.8-1.8 1.3-4.3 2.5-5.5 2.5-1.3 0-3.5 0.5-5 1.1-2 0.8-3.9 0.7-6.8-0.1-2.2-0.6-5.8-2-8-3.1-2.2-1-4.9-3.3-6-5.1-1.1-1.8-2.5-4.9-3.2-6.8-0.7-1.9-1.3-4.5-1.3-5.8 0-2.1 0.4-2.2 6.5-2.2zm-427.9 4.7c4.4 0.2 15.3 0.4 24.4 0.6 15 0.3 16.9 0.5 20.5 2.6 2.2 1.3 6.2 4.4 8.8 6.9 2.7 2.6 5.7 6.5 6.7 8.7 1 2.2 2.5 6.8 3.4 10.2 1.3 5.3 1.4 8.2 0.6 17.8-0.7 8.2-1.7 13-3.3 16.7-1.3 2.9-3.7 6.8-5.3 8.7-1.6 1.9-4.7 4.6-6.9 6.1-2.2 1.4-5.8 3.2-8 3.9-2.2 0.7-9.8 1.5-17 1.8-10.4 0.4-13.3 0.8-14.3 2.2-0.9 1.2-1.2 7.3-1.2 45.1h-17l-0.2-65.3c-0.1-36 0.1-65.6 0.4-65.8 0.3-0.2 4.1-0.3 8.4-0.2zm9.2 35.5c0 11.2 0 22.8 0.2 25.8 0.1 3 0.7 5.8 1.4 6.2 0.6 0.4 6.2 0.5 12.4 0.3 9.4-0.4 11.7-0.9 14.5-2.7 1.7-1.2 4-3.1 5-4.3 1-1.1 2.5-3.6 3.3-5.5 0.9-2.2 1.4-7 1.4-13 0-5.2-0.6-11.1-1.3-13-0.6-1.9-1.4-3.7-1.7-4-0.3-0.3-1-1.4-1.6-2.5-0.6-1.1-2.6-2.7-4.5-3.6-1.9-0.9-5-2.1-6.9-2.8-1.9-0.6-7.7-1.1-12.7-1.1h-9.3zm-850.6-32.1c0.4-0.1 1.7 1.2 2.8 2.8 1.1 1.7 2 3.5 2 4 0 0.6 0.3 1 0.7 1 0.4 0 1.5 1.7 2.5 3.8 0.9 2.1 2.5 5.1 3.5 6.7 1 1.7 2 3.3 2.3 3.5 0.4 0.3 2 3 3.6 6 1.7 3.1 4 7.2 5.2 9.3 1.2 2.1 3.1 5.3 4.2 7.2 1.1 2 2.8 5 3.8 6.8 1 1.8 2.5 4.4 3.2 5.7 0.8 1.4 1.7 2.8 2 3 0.2 0.3 1.5 2.5 2.7 4.8 1.8 3.4 2 4.5 1 5.5-0.7 0.7-3.3 2.3-5.7 3.5-3.7 1.9-4.8 2.1-5.7 1-0.6-0.7-2.1-2.9-3.3-5-1.1-2.1-2.9-5.2-3.9-7-1-1.8-2.5-4.4-3.2-5.8-0.8-1.3-1.7-2.7-1.9-3-0.3-0.2-1.5-2.3-2.6-4.5-1.2-2.1-2.7-5.1-3.5-6.5-0.8-1.3-1.7-2.7-1.9-3-0.3-0.2-1.2-1.8-2-3.5-0.8-1.6-2.2-4.1-3.1-5.5-1-1.3-2.7-4.1-3.8-6.2-1.2-2.1-3-5.3-4.1-7.3-1.1-1.9-3-5.1-6.1-11l2.2-1.5c1.2-0.8 3.6-2.2 5.3-3.1 1.7-0.9 3.4-1.7 3.8-1.7zm268.3 8c0.5-0.1 2.3 0.3 4 0.8 1.6 0.5 5.1 1.6 7.7 2.3 2.7 0.7 6.8 2.7 9.3 4.5 2.4 1.8 5.9 5.3 7.7 7.8 1.8 2.6 4.1 7.2 5.1 10.3 1 3.1 2 8.2 2.3 11.4 0.2 3.2 0 5.8-0.4 5.8-0.4 0-4 0.1-7.9 0.3-4 0.1-7.4-0.1-7.7-0.4-0.3-0.2-0.8-2.7-1.2-5.5-0.3-2.7-1-5.4-1.6-6-0.5-0.5-0.9-1.6-0.8-2.5 0-0.8-1.5-3-3.3-4.9-1.8-1.9-5.3-4.3-7.7-5.4-3.7-1.5-5.7-1.8-10.5-1.2-3.6 0.4-7.3 1.6-9 2.9-1.7 1.1-3.6 2.8-4.3 3.6-0.6 0.9-2.2 3.6-3.5 6-2.2 4.5-2.2 5.1-2.2 40.5 0 29.3 0.2 36.9 1.5 40.8 0.8 2.6 1.8 4.8 2.2 4.8 0.4 0 0.8 0.6 0.8 1.4 0 0.9 1.4 2.7 3.2 4 1.8 1.4 4 2.5 5 2.5 1 0 1.8 0.5 1.8 1 0 0.6 3 1 7 1 3.8 0 7.2-0.4 7.5-1 0.2-0.5 1.2-1 2.2-1 1 0 2.9-1 4.3-2.2 1.4-1.2 3.5-3.6 4.6-5.3 1.1-1.6 2.4-4.3 2.8-6 0.4-1.6 1-4.5 2.1-9.8l7.7-0.1c5.9 0 8.1 0.3 8.8 1.4 0.5 0.9 0.7 2.4 0.4 3.5-0.4 1.1-0.9 3.6-1.2 5.5-0.2 2-0.8 4-1.2 4.5-0.4 0.6-1.3 3-2.1 5.4-0.8 2.4-3.5 6.7-6.1 9.5-2.5 2.8-6.5 6.1-9 7.3-2.4 1.1-5.6 2.6-7.1 3.2-1.5 0.6-7.4 1.2-13 1.2-5.6 0-11.8-0.5-13.7-1.1-2-0.6-5.3-2.1-7.5-3.2-2.2-1.2-5.4-3.6-7-5.3-1.7-1.7-3.7-4.2-4.5-5.5-0.7-1.4-2.1-3.8-3.1-5.5-0.9-1.6-2-4.8-2.4-7-0.4-2.1-0.8-21.5-0.9-43 0-21.4 0.3-40.3 0.7-42 0.4-1.6 2.1-5.6 3.7-9 1.6-3.3 4.8-7.8 7.2-10 2.3-2.1 5.4-4.5 6.8-5.1 1.3-0.6 3.8-1.6 5.5-2.2 1.6-0.6 5.9-1.5 9.5-2 3.5-0.5 6.9-1 7.5-1zm96.5 0.5c0.8 0.3 3.5 0.7 6 1 2.4 0.4 7.3 1.9 10.7 3.5 3.4 1.6 6.3 3.3 6.3 3.8 0 0.6 0.5 1.1 1.2 1.1 0.7 0 2.6 1.9 4.2 4.2 1.7 2.4 3.6 5.6 4.4 7.2 0.8 1.7 1.7 3.9 2.2 5 0.4 1.1 1.1 3.4 1.6 5 0.4 1.7 0.9 17.9 1.1 36 0.3 21.9 0 35.6-0.8 40.5-0.6 4.2-2.4 10.2-4 13.5-1.7 3.7-4.8 8-8.1 11.1-2.9 2.7-6.5 5.5-7.8 6.1-1.4 0.6-3.8 1.6-5.3 2.2-1.5 0.6-4.5 1.1-6.7 1.1-2.2 0-4.3 0.5-4.5 1-0.3 0.6-1.6 0.8-2.8 0.5-1.2-0.2-4.7-0.8-7.7-1.3-3.1-0.5-6.4-1.2-7.5-1.6-1.1-0.4-4-1.7-6.4-2.9-2.4-1.2-6-4-8.1-6.2-2.1-2.1-4.6-5.5-5.7-7.5-1.1-1.9-2.5-5.3-3.1-7.5-0.6-2.1-1.6-6.2-2.3-9-0.7-3.2-1-16.6-0.9-38 0.1-18.1 0.5-33.9 1-35 0.4-1.1 1.2-3.8 1.9-6 0.7-2.1 2.2-5.9 3.4-8.3 1.2-2.4 4.4-6.4 7.2-9 2.7-2.6 6.2-5.2 7.7-5.9 1.5-0.7 3.8-1.7 5-2.2 1.2-0.5 5.4-1.4 9.3-1.9 3.8-0.5 7.6-0.7 8.5-0.5zm-12.9 19.3c-1.1 0-3.4 1.6-5.3 3.4-2 2-4.3 5.9-5.6 9.7-2.2 6.2-2.3 7.7-2.3 39.2 0.1 30.9 0.2 33.1 2.2 38.5 1.1 3.2 3.5 7.2 5.2 9 1.8 1.8 5.3 3.9 7.9 4.7 2.6 0.9 6.6 1.5 8.8 1.5 2.2 0 5.9-0.8 8.2-1.9 2.3-1.1 5.3-2.9 6.5-4 1.2-1.1 2.9-3.5 3.6-5.3 0.8-1.8 2-4.8 2.8-6.8 1.1-2.7 1.4-11 1.4-37.1 0-25.9-0.3-34.1-1.3-35-0.7-0.8-1.3-2.1-1.3-3.1 0.1-1-0.9-3.2-2.1-5-1.3-1.8-3.4-4.3-4.8-5.5-1.4-1.2-3.3-2.2-4.3-2.2-1 0-2-0.5-2.2-1.1-0.3-0.5-3.7-1-7.5-1-3.8 0-7.2 0.5-7.5 1-0.3 0.6-1.4 1-2.4 1zm-193.3-16c13.7 0 24 0.4 26.2 1.1 1.9 0.6 5.4 2.1 7.8 3.3 2.4 1.2 6 4 8 6.1 2 2.2 4.6 6.1 5.8 8.5 1.2 2.5 2.6 5.8 3.2 7.3 0.7 1.5 1.2 4.7 1.2 7 0.1 2.3 0.4 5 0.8 6 0.4 1 0.3 5-0.2 9-0.4 4-1.3 9.1-1.8 11.2-0.6 2.2-2 6-3.2 8.4-1.2 2.4-4.4 6.4-7.1 9-2.8 2.6-6.2 5.2-7.5 5.8-1.4 0.6-3.4 1.5-4.5 1.8-1.1 0.4-4.3 1.1-7 1.6-2.8 0.6-8.9 0.9-13.5 0.9-4.7 0-9.8 0.2-14 1v48h-17l-0.3-67.2c-0.1-37-0.1-67.6 0.1-68 0.1-0.4 10.5-0.8 23-0.8zm-5.5 44.6l0.2 25.9c20.6 0 24.7-0.3 25.6-1.2 0.7-0.7 2-1.3 2.8-1.3 0.9 0 3-1.3 4.8-3 1.8-1.6 3.9-4.6 4.8-6.7 0.8-2.1 1.5-5 1.5-6.5 0-1.5 0.4-3.9 1-5.3 0.6-1.6 0.6-4.6-0.2-9.2-0.6-3.7-1.5-7.2-2-7.8-0.5-0.5-0.9-1.7-0.9-2.7 0.1-1-1.9-3.3-4.2-5.3-2.3-1.9-5-3.5-6-3.5-1 0-2-0.4-2.2-1-0.3-0.5-5.5-1-12.6-1-8.8 0-12.1 0.4-12.4 1.3-0.2 0.7-0.3 13-0.2 27.3zm880.3-30c3.8 0.2 8.4 0.6 10.4 0.9 1.9 0.3 5.5 1.5 8 2.7 2.4 1.2 5.8 3.6 7.5 5.4 1.6 1.8 3.9 5.2 5.1 7.6 1.2 2.4 2.6 6.7 3.2 9.6 0.7 2.9 1.2 6.4 1.2 7.7 0 1.4-0.5 2.7-1 2.8-0.6 0.1-4 0.1-14.5-0.3l-1.5-6.1c-1-3.9-2.6-7.1-4.5-9.2-1.7-1.8-4.3-3.7-5.8-4.4-1.5-0.7-4.7-1.2-7-1.2-2.5 0-5.7 0.9-8 2.2-2 1.3-4.7 4.1-5.9 6.2-2.1 3.9-2.3 5.2-2.3 27.5 0 18.2 0.3 24.4 1.4 27 0.8 2 2.2 4.3 3.2 5.3 1 1 2.3 1.7 2.9 1.7 0.5 0 1.1 0.5 1.2 1.1 0.2 0.6 3.3 1.2 7.3 1.2 5.6 0.2 7.5-0.2 10-1.9 1.6-1.1 4-3.6 5.2-5.4 1.2-1.9 2.5-5.6 3.8-13h15.5l-0.1 3.8c0 2.1-0.5 5.6-1.1 7.7-0.6 2.2-2 6-3.2 8.4-1.2 2.4-4.4 6.5-7.1 9.1-2.8 2.6-6.4 5.1-8 5.5-1.7 0.4-5.1 1-7.5 1.2-2.5 0.3-5 0.9-5.5 1.4-0.6 0.5-1.7 0.4-2.5-0.1-0.9-0.5-3.3-0.9-5.5-0.9-2.2 0-6.3-1.1-9-2.4-2.8-1.3-6.6-4.2-8.6-6.3-1.9-2.1-4.6-6.1-5.9-8.9-2.2-4.6-2.4-6.5-3-29.5-0.4-13.4-0.3-26 0.1-28 0.5-1.9 1.4-5.3 2.1-7.5 0.6-2.1 2.5-6 4.1-8.5 1.7-2.4 3.5-4.8 4.1-5.2 0.6-0.4 3-1.9 5.3-3.3 2.3-1.3 5.2-2.5 6.3-2.5 1.1 0 2.1-0.3 2.4-0.8 0.2-0.5 3.5-0.8 7.2-0.6zm84.2 0c3.4 0 7.5 0.3 9 0.8 1.4 0.4 3.8 1.3 5.2 1.9 1.3 0.6 5.2 3.9 8.5 7.2 4.7 4.7 6.2 7.1 7.2 11 0.8 2.8 1.8 6.5 2.3 8.3 0.5 1.8 0.7 4.2 0.5 5.2-0.4 1.7-1.4 2.1-5.3 2.2-2.6 0-5.6 0.2-6.7 0.4-1.1 0.1-2.6 0-3.3-0.4-0.7-0.4-1.5-2.5-1.8-4.7-0.3-2.1-1.4-5.8-2.5-8-1-2.1-3.2-4.6-4.7-5.3-1.5-0.8-3.5-1.8-4.5-2.3-1-0.5-3.3-0.9-5.2-0.9-2 0-4.8 0.6-6.3 1.3-1.5 0.6-4.1 2.7-5.7 4.5-1.7 1.8-3.6 5.4-4.2 8-0.8 2.8-1.3 12-1.3 22.2 0 10.6 0.5 19.7 1.2 23 0.9 3.9 2.3 6.6 4.8 9.1 1.9 1.9 4.8 3.8 6.5 4.2 1.6 0.3 5.2 0.4 8 0.1 2.7-0.3 5.2-0.8 5.5-1.2 0.2-0.4 1.4-1.2 2.5-1.8 1.1-0.6 2.7-2.4 3.6-4 1-1.6 1.7-4.1 1.8-5.6 0-1.5 0.6-3.9 1.3-5.3 1.2-2.3 1.7-2.5 15.8-2.5l0.3 3.3c0.2 1.8-0.2 5.3-0.9 7.7-0.6 2.5-2 6.4-3 8.5-1 2.2-3.6 5.9-5.9 8.1-2.2 2.2-5.8 4.9-8 5.9-2.2 1-6.7 2.2-10 2.6-3.3 0.5-8.5 0.6-11.5 0.2-3.1-0.3-7.6-1.5-10-2.6-2.5-1.2-6.1-3.7-8-5.7-2-1.9-4.5-5.5-5.7-8-1.2-2.4-2.7-6.9-3.3-10-0.6-3-1.1-15.1-1-27.5 0-13.2 0.5-23.3 1.1-25.5 0.7-1.9 2.1-5.5 3.3-8 1.1-2.4 3.5-5.9 5.3-7.7 1.7-1.8 3.6-3.3 4.1-3.3 0.5 0 1.8-0.8 2.8-1.7 1-1 4.1-2.3 6.9-2.8 2.7-0.5 7.8-0.9 11.3-0.9zm251.2-0.4c1.3-0.1 5.2 0.3 8.5 0.9 3.3 0.6 7.1 1.6 8.5 2.3 1.3 0.6 4.6 3.2 7.3 5.6 2.6 2.5 5.7 6.4 6.9 8.5 1.1 2.2 2.6 7.2 3.4 11 0.9 4.9 1 7.4 0.3 8-0.6 0.6-4 1-7.6 1-3.6 0-6.9-0.2-7.4-0.5-0.5-0.2-1.2-2.3-1.5-4.5-0.3-2.1-1.1-5.1-1.7-6.5-0.6-1.3-2.3-3.7-3.7-5.2-1.4-1.5-3.3-2.8-4.3-2.8-1 0-2-0.4-2.2-1-0.3-0.5-2.3-1-4.5-1-2.2 0-5.3 0.6-6.8 1.3-1.5 0.6-4.2 2.8-6 4.7-2.1 2.3-3.3 4.5-3.3 6.3 0 1.5-0.4 3-0.9 3.2-0.7 0.4-1 8.1-1 20.3 0 12.8 0.4 21.2 1.2 23.7 0.7 2.2 2.1 5.4 3.1 7 1 1.7 3.2 3.7 5 4.4 1.7 0.8 5.4 1.4 8.2 1.5 2.7 0 6.3-0.6 8-1.3 1.6-0.7 4.1-2.9 5.6-4.9 1.6-2.3 2.8-5.6 3.9-14.2h7.7c4.3 0 8 0.2 8.3 0.5 0.2 0.2 0.1 3.1-0.3 6.2-0.5 3.2-1.6 8.1-2.5 10.8-1.1 3.2-3.3 6.7-6.2 9.6-2.5 2.6-6.7 5.6-9.3 6.8-2.6 1.2-6.5 2.1-8.7 2.1-2.2 0-4.3 0.5-4.5 1q-0.5 1-3 0c-1.4-0.5-4-0.9-5.8-0.9-1.8 0-4.6-0.6-6.3-1.3-1.6-0.7-5.1-2.6-7.7-4.3-2.6-1.6-4.7-3.4-4.7-4 0-0.5-0.9-2-2-3.2-1.1-1.2-2-2.7-2-3.3 0-0.5-0.4-1.7-0.9-2.7-0.5-1-1.4-3.3-2-5.3-0.6-2.1-1.1-12.7-1.1-27 0-14.2 0.4-25 1.1-27.5 0.6-2.1 2-6 3.2-8.5 1.2-2.4 3.6-5.9 5.4-7.7 1.7-1.8 3.4-3.3 3.7-3.3 0.3 0 1.8-0.7 3.2-1.7 1.5-1 5-2.3 7.8-2.9 2.8-0.6 6.2-1.1 7.6-1.2zm-417 1.3c6.5 0.2 11.8 0.9 14 1.8 1.9 0.8 4.1 2.3 5 3.2 0.8 0.9 1.8 1.6 2.2 1.6 0.4 0 1.3 0.5 2 1.2 0.7 0.7 1.9 2.4 2.7 3.8 0.8 1.3 2.4 4.3 3.5 6.4 1.9 3.7 2.1 6.3 2.6 29.5 0.2 14.1 0.1 27.4-0.4 29.5-0.5 2.2-1.3 5.1-1.8 6.3-0.5 1.2-1.4 3.4-2.1 4.9-0.7 1.4-3.6 4.8-6.5 7.5-2.9 2.7-6.1 4.8-7.2 4.8-1.1 0-2.2 0.4-2.4 0.8-0.2 0.4-3.1 1.1-6.3 1.6-3.2 0.5-7 0.8-8.3 0.8-1.4 0-4.6-0.4-7-0.9-2.5-0.5-6.3-1.7-8.5-2.8-2.2-1-5.9-3.7-8.1-5.9-2.2-2.2-4.6-5.4-5.3-7.1-0.8-1.6-1.8-3.7-2.3-4.7-0.4-1-0.8-3-0.8-4.5 0-1.5-0.2-3-0.5-3.3-0.3-0.2-0.6-9.9-0.6-21.5-0.1-11.5 0.2-23.2 0.6-26 0.4-2.7 1.8-7.2 3-10 1.2-2.7 4.2-6.8 6.6-9 2.4-2.3 5.9-4.8 7.9-5.7 1.9-0.9 4.4-1.8 5.5-2.1 1.1-0.3 6.7-0.4 12.5-0.2zm-9.4 16.5c-1.2 0-3.4 1.3-4.8 2.8-1.3 1.5-3.1 4.1-3.9 5.6-1.1 2.3-1.4 7.9-1.4 26.1 0 22.8 0 23.3 2.5 27.9 1.3 2.6 3.2 4.9 4.2 5.2 1 0.2 1.8 0.9 1.8 1.4 0 0.6 2.3 1.3 5.2 1.6 2.9 0.3 7.1 0.2 9.3-0.2 2.6-0.5 5.2-2 7.5-4.3 2.8-2.8 3.7-4.8 4.7-10.1 0.7-3.5 1.2-13.6 1.2-22.5 0-8.8-0.5-17.8-1.1-20-0.6-2.1-1.6-5.1-2.2-6.5-0.6-1.3-2.2-3.4-3.5-4.5-1.3-1.1-4-2.5-6-3.2-2-0.7-5.1-1.2-6.8-1.2-1.8 0-3.5 0.4-3.8 0.9-0.3 0.6-1.6 1-2.9 1zm678.4-16.6c8.2 0.3 11.4 0.8 14.7 2.5 2.3 1.2 5.7 3.6 7.5 5.4 1.8 1.8 4.3 5.5 5.7 8.2 1.3 2.8 2.8 5.8 3.2 6.8 0.5 1 0.9 9.2 0.9 34.7l-5.3 0.2c-2.9 0-13.9 0-24.5 0-14.5-0.1-19.4 0.2-20 1.1-0.3 0.7-0.6 5-0.5 9.5 0.2 5.7 0.8 9.2 2 11.4 1 1.7 2.7 3.6 3.8 4.2 1.1 0.6 2.2 1.5 2.5 2 0.2 0.4 4.1 0.9 8.5 0.9 7.1 0.1 8.4-0.1 11.5-2.4 1.9-1.4 4-3.6 4.6-5 0.6-1.3 1.7-4.2 3.5-10.4l6.7 0.2c3.7 0.1 7.1 0.2 7.7 0.2 0.6 0.1 0.7 2.3 0.3 5.9-0.4 3.2-1.8 7.8-3 10.2-1.3 2.5-4.1 6.4-6.3 8.6-2.2 2.2-5.2 4.5-6.5 5.1-1.4 0.6-4.1 1.7-6 2.4-2.2 0.8-7.6 1.3-14 1.2-6-0.1-11-0.6-11.5-1.2-0.6-0.6-1.8-1.1-2.8-1.1-1 0-4-2.1-6.9-4.7-2.9-2.7-6-6.9-7.3-9.8-1.2-2.7-2.5-6.5-2.9-8.5-0.4-1.9-0.7-13.8-0.7-26.5 0.1-12.6 0.4-24.8 0.9-27 0.4-2.1 1.5-5.3 2.3-7 0.8-1.6 2.1-4.1 2.9-5.4 0.8-1.4 1.9-3 2.5-3.5 0.5-0.6 2.3-2.1 4-3.2 1.6-1.2 5-2.8 7.5-3.7 3.3-1.3 7.1-1.6 15-1.3zm-10.8 17.5c-1.2 0.6-3.4 3-4.7 5.1-2.3 3.6-2.5 5-2.3 12.8l0.3 8.7h33c0.5-7.7 0.1-12.2-0.5-15-0.6-2.7-2.3-6.5-3.8-8.3-1.5-1.8-4.5-4-6.7-4.7-2.2-0.8-4.9-1.4-6-1.3-1.1 0-3.2 0.4-4.5 0.8-1.4 0.4-3.6 1.3-4.8 1.9zm-427.6-16.5l0.2 33.3c0.1 21.5 0.5 33.4 1.2 33.4 0.5-0.1 0.9-0.6 0.9-1.3 0-0.7 0.7-2.6 1.4-4.3 0.8-1.6 2.4-5.2 3.6-8 1.2-2.7 5.2-11 8.7-18.4 3.6-7.5 8.9-18.3 17-34.6h15.4v99.5h-15v-31.4c0-20.1-0.4-31.7-1-32.1-0.6-0.2-1.3 0.3-1.6 1.3-0.4 1-1 2.7-1.4 3.7-0.5 1.1-5.3 11.3-10.8 22.6-5.4 11.2-11.6 23.9-17.2 35.9h-17l-0.2-49.3c-0.1-27.1 0.1-49.5 0.5-49.8 0.4-0.3 4-0.5 15.3-0.5zm85.6 0.5l0.4 31.8c0.2 17.5 0.6 32.5 0.9 33.3 0.4 1.2 0.8 0.9 1.8-1 0.7-1.3 1.9-4 2.6-6 0.7-1.9 3.6-8.2 6.3-14 2.8-5.7 8.1-17 12-25 3.8-7.9 7.5-15.5 8.1-16.7 0.8-1.6 2.1-2.3 4.2-2.4 1.6 0 5-0.1 12-0.1l0.5 99.3-15.2-0.6 0.1-31.2c0-19.9-0.3-31.4-0.9-31.8-0.6-0.2-1.3 0.3-1.6 1.3-0.4 1-1 2.7-1.4 3.7-0.4 1.1-2.1 5-3.8 8.5-1.6 3.6-6.2 13.1-10.1 21-3.9 8-7.1 15.1-7.1 15.8 0 0.7-0.4 1.4-0.8 1.5-0.5 0.1-2 2.8-6.2 11.7h-17l-0.2-49.3c-0.1-27.1 0.1-49.5 0.4-49.7 0.3-0.3 3.8-0.4 15-0.1zm200.9-1l8.7 0.5c4.8 0.3 8.8 0.6 8.9 0.6 0.1 0-0.3 1.1-0.9 2.3-0.7 1.2-2.5 3.6-4 5.2-1.6 1.7-2.8 3.4-2.8 3.8 0 0.4-1.8 2.7-4 5-2.2 2.3-4.1 4.7-4.1 5.2 0 0.6-0.8 1.7-1.8 2.5-0.9 0.9-2.8 3.1-4.2 5-1.3 2-3 4.2-3.8 5-0.8 0.9-2.5 2.9-3.8 4.5-1.2 1.7-2.3 4-2.3 5-0.1 1.1 0.7 3 1.8 4 1 1.1 5.5 7.7 10.1 14.5 4.5 6.9 8.7 12.7 9.2 12.8 0.5 0.1 0.9 0.8 0.9 1.5 0 0.7 1.1 2.6 2.5 4.2 1.4 1.7 2.7 3.8 3 4.8 0.3 1 0.9 1.7 1.5 1.7 0.5 0 0.9 0.6 0.9 1.3 0 0.7 0.8 2.2 1.8 3.3 1 1.1 2.3 3 3 4.3 0.7 1.2 1.3 2.4 1.3 2.6 0 0.3-4.2 0.6-18.5 0.6l-5.5-8.2c-3.1-4.5-6-8.7-6.5-9.3-0.6-0.6-1.7-2.3-2.5-3.8-0.9-1.6-1.9-2.8-2.3-2.8-0.4 0-0.7-0.5-0.7-1.2 0-0.7-0.8-2.2-1.8-3.3-0.9-1-2.4-3.2-3.2-4.7-0.9-1.6-1.9-2.8-2.3-2.8-0.4 0-0.7-0.5-0.7-1.2 0-0.7-0.9-2.2-4.1-5.3l-6 6 0.1 36.5h-16v-99h16v19.5c0 12 0.3 19.7 1 20 0.5 0.3 1 0.1 1-0.5 0-0.5 0.6-1.7 1.4-2.7 0.8-1 3.1-3.9 5.1-6.5 2-2.6 3.7-5 3.6-5.3-0.1-0.2 1.2-1.9 2.9-3.7 1.6-1.8 3-3.6 3-4 0-0.4 1.3-2.2 3-4 1.6-1.8 3-3.6 3-4 0-0.4 0.5-1.4 1.2-2.1 0.7-0.8 2.5-2.8 4.1-4.6zm47.3 0.7l0.3 33c0.2 18.1 0.6 33.3 1 33.7 0.4 0.5 1.8-1.8 3.1-5 1.3-3.1 4.8-10.8 7.7-17 3-6.2 7.9-16.5 11-23 3.1-6.5 6.6-13.8 10.2-20.7l8.1-0.3c7.8-0.2 8.1-0.2 8.1 2 0 1.2 0 22.3 0.1 46.8 0 24.4 0 45.7-0.1 50h-15v-33c0-18.2-0.3-33-0.7-33.1-0.4 0-1.4 1.7-2.1 3.8-0.8 2.1-3.2 7.6-5.4 12.3-2.2 4.6-8.6 17.8-24.3 50l-16.5-0.5-0.1-98 2.3-0.6c1.3-0.3 4.6-0.6 12.3-0.4zm-648.1 151.5c0.5 0 4.1 0.6 8 1.4 3.9 0.8 8.9 2 11.1 2.6 2.5 0.8 6 3.2 9.1 6.3 2.8 2.9 6.1 7.4 7.4 10.2 1.2 2.7 2.9 8.1 3.6 12 0.7 3.8 1 7.3 0.6 7.6-0.4 0.4-2.5 0.8-4.7 0.9-2.2 0.1-5.7 0.2-7.7 0.1-3.7-0.1-3.8-0.2-4.4-4.9-0.4-2.6-1.6-6.3-2.7-8.2-1-2-3.6-5-5.6-6.8-1.9-1.8-4.5-3.3-5.6-3.4-1.1 0-5.1-0.1-9 0-4 0-7.1 0.5-7.2 1.1-0.2 0.6-0.9 1.1-1.8 1.1-0.8 0-2.5 1.4-3.8 3.2-1.2 1.8-2.9 4.6-3.7 6.2-1.2 2.3-1.5 9.5-1.5 40 0 33.1 0.2 37.5 1.8 40.8 0.9 2.1 2.9 4.9 4.2 6.3 1.4 1.3 4.2 3.1 6.3 4 2 0.8 6.1 1.5 9 1.5q5.2 0 9-2.2c2-1.2 5-3.5 6.5-5.2 1.6-1.7 3.5-5.5 4.3-8.4 0.8-2.9 1.4-5.9 1.4-6.7 0-1.2 1.6-1.5 16-1.5v4.2c0 2.3-0.5 6.1-1.1 8.3-0.6 2.2-2.1 5.9-3.2 8.3-1.2 2.4-4 6.3-6.2 8.5-2.2 2.3-6 5.2-8.5 6.4-2.4 1.2-6.5 2.7-9 3.2-2.4 0.6-7.4 1-11 1-3.5 0-8.5-0.6-11-1.2-2.5-0.7-5.8-2-7.3-3-1.5-1-2.9-1.7-3.2-1.7-0.2 0-1.9-1.5-3.7-3.3-1.8-1.8-4.2-4.6-5.4-6.2-1.1-1.7-2.9-5.5-3.9-8.5-1.7-4.9-1.9-9.5-2.3-41-0.2-25.7 0-37.2 0.9-41.5 0.7-3.3 2.3-8.3 3.5-11 1.3-2.8 4.5-7.2 7.1-9.7 2.7-2.6 7-5.7 9.6-6.8 2.6-1.1 6-2 7.5-2.1 1.5 0 3.4-0.4 4.2-0.9 0.9-0.6 1.9-1 2.4-1zm-535.4 13v13l-13.2 0.4c-7.3 0.3-24.3 0.8-62.3 1.8l-1.1-3.4c-0.6-1.8-0.8-4.8-0.5-6.6 0.5-2.8 1.1-3.3 4.4-3.8 2.1-0.3 5.9-0.4 8.5-0.1 2.6 0.3 15.8 0.2 29.2-0.2 13.5-0.5 26.9-0.9 35-1.1zm849.3 21c8.3 0 10.6 0.3 15.2 2.5 3.1 1.3 7.2 4.2 9.3 6.3 2 2.1 4.2 5 4.9 6.3 0.6 1.3 1.5 3.3 1.9 4.4 0.4 1.1 1.2 3.8 1.8 6 0.7 2.4 0.9 9.7 0.1 33.6l-50 0.4-0.3 6c-0.2 3.3 0.2 7.8 0.9 10 0.6 2.2 2.2 5.4 3.5 7.2 1.3 1.8 3.3 3.3 4.4 3.3 1.1 0 2.3 0.4 2.5 1 0.3 0.5 3 1 6 1 3.1 0 7-0.8 8.8-1.7 1.8-0.9 4.1-2.3 5.1-3.2 1-0.9 2.4-3 3.2-4.6 0.7-1.7 1.4-4.2 1.6-5.5 0.3-2.4 0.6-2.6 16.3-3.1l-0.6 5.3c-0.4 2.9-1 6.2-1.4 7.3-0.3 1.1-1.2 3.1-1.8 4.5-0.6 1.3-3.4 4.8-6.2 7.7-2.7 2.9-5.8 5.2-6.7 5.2-1 0-1.8 0.5-1.8 1.1 0 0.5-1.7 1.2-3.7 1.5-2.1 0.3-6.5 0.8-9.8 1.1-3.3 0.3-8.4 0.1-11.5-0.6-3-0.6-6.6-1.7-8-2.3-1.3-0.7-4.3-2.9-6.5-4.9-2.2-2-4.9-5.6-6.1-8-1.2-2.4-2.6-5.6-3.2-7.1-0.8-1.8-1.2-11.7-1.2-28.5 0-16.5 0.5-27 1.2-29.2 0.6-2 1.6-4.7 2.3-6 0.6-1.4 2-4 3.1-5.8 1-1.8 2.5-3.2 3.1-3.2 0.7 0 2.6-1.4 4.2-3 1.7-1.7 3.8-3 4.8-3.1 1 0 2.5-0.4 3.3-0.9 0.9-0.6 5.9-1 11.3-1zm-12.2 20c-1.2 1.3-2.5 3.8-2.9 5.3-0.4 1.6-1 3.1-1.4 3.3-0.4 0.2-0.8 3.7-0.8 7.9v7.5c25.6 0.3 33.6 0.5 34.3 0.5 0.7 0 1.4-1.7 1.6-4 0.2-2.2-0.3-6.5-0.9-9.5-0.7-3.1-1.8-6.5-2.4-7.6-0.6-1.2-2.6-3.4-4.6-5-2.7-2.2-4.6-2.9-8.5-3-2.7-0.1-6.6 0.3-8.6 1-2 0.6-4.6 2.2-5.8 3.6zm261.7-20c5.6 0 11 0.4 12 0.9 0.9 0.5 3.3 1.6 5.2 2.4 2 0.8 4.9 2.7 6.7 4.3 1.7 1.6 4.5 5.6 6.3 8.9 3 5.6 3.2 6.8 3.9 20.5 0.5 7.9 0.7 16 0.5 18-0.2 1.9-0.6 3.6-0.9 3.8-0.2 0.2-11.6 0.4-50 0.7v8.5c0 7.7 0.3 9.1 2.8 12.8 1.5 2.3 3.5 4.4 4.5 4.7 0.9 0.3 2.5 1 3.5 1.5 0.9 0.5 4.2 1 7.2 1 3.1 0 5.8-0.5 6-1 0.3-0.6 1.3-1 2.3-1 0.9 0 2.5-0.8 3.4-1.8 0.9-0.9 2.6-3.4 3.7-5.5 1.2-2.1 2.1-4.9 2.1-6.2 0-2.5 0.2-2.5 16-2.5v4c0 2.2-0.5 5.2-1.1 6.7-0.6 1.5-2.1 4.7-3.3 7.1-1.1 2.4-3.9 6-6.1 8-2.3 2.2-6.3 4.5-9.5 5.5-3 1-8.4 2.1-12 2.4-3.9 0.3-8.4 0.1-11.5-0.7-2.7-0.7-6.1-1.7-7.5-2.4-1.3-0.6-4.7-3.3-7.5-6.1-2.8-2.8-5.5-6.2-6.1-7.5-0.6-1.4-1.6-3.8-2.3-5.3-0.7-1.8-1.1-11.8-1.1-29 0-20.7 0.4-27.3 1.6-31.2 0.8-2.8 2.4-6.4 3.4-8 1-1.7 2.7-3.9 3.7-5 1-1.1 2.9-2.6 4.1-3.3 1.2-0.7 3.2-1.8 4.5-2.4 1.2-0.6 2.9-1.5 3.7-1.9 0.9-0.5 6.1-0.8 11.8-0.9zm-14.9 24.8c0.1 0.9-0.3 2.1-0.9 2.7-0.6 0.5-0.9 4.4-0.7 8.8l0.2 7.9c25.4 0 32.9-0.2 33.1-0.4 0.2-0.2 0.5-3.9 0.6-8.3 0.1-6.1-0.3-9-1.8-12-1.2-2.6-3.1-4.6-5.4-5.7-2.2-1.1-6-1.8-10.6-1.8-6.9 0-7.3 0.1-10.9 3.6-2 1.9-3.6 4.3-3.6 5.2zm99.4-24.7c8.3-0.1 10.5 0.2 15 2.3 2.9 1.3 6.7 3.7 8.5 5.5 1.8 1.7 3.2 3.3 3.2 3.6 0 0.2 0.8 1.7 1.8 3.2 1 1.5 2.3 4.3 3 6.3 0.6 1.9 1.5 6.1 2.7 15h-8.2c-6.5 0-8.4-0.4-8.8-1.5-0.2-0.9-0.5-2.7-0.5-4 0-1.4-0.5-3.8-1.2-5.3-0.7-1.5-2.4-3.9-3.8-5.2-1.3-1.4-4-3-6-3.7-1.9-0.6-5.4-0.9-7.7-0.7-2.4 0.2-5.5 1.2-7 2.2-1.5 1-3.6 3.1-4.5 4.5-1 1.5-2.1 3.9-2.5 5.4-0.4 1.5-0.8 12-1 23.3-0.2 11.2 0 21.1 0.4 22 0.3 0.8 0.8 2.6 1.1 4 0.2 1.3 0.7 2.7 1.1 3 0.4 0.2 1 1.1 1.3 2 0.3 0.8 2.4 2.5 4.7 3.7 2.7 1.5 5.8 2.2 8.9 2.2 3 0 6.1-0.8 8.5-2.2 2-1.2 4.6-3.8 5.6-5.7 1.1-2 2.2-5.6 2.5-8 0.3-2.5 1.1-4.8 1.8-5.2 0.7-0.3 2.2-0.5 3.3-0.4 1.1 0.2 4.2 0.4 6.8 0.4 3.8 0.1 4.8 0.5 5.2 2.2 0.3 1.1 0.1 3.4-0.4 5.2-0.5 1.8-1.5 5.3-2.2 7.8-0.7 2.4-2.7 6.6-4.3 9.2-1.7 2.6-3.5 4.7-4.1 4.7-0.5 0-1.6 0.7-2.5 1.6-0.8 0.9-2.8 2.2-4.5 3-1.6 0.7-4.3 1.7-6 2.2-1.6 0.6-6.1 1-10 1-3.8 0-8.3-0.4-10-0.9-1.6-0.6-4.9-2-7.3-3.2-2.4-1.2-5.6-3.3-7-4.7-1.5-1.5-3.6-4.6-4.8-7-1.2-2.5-2.6-6.2-3.2-8.4-0.7-2.4-1.1-13.5-1.1-27.5 0-15.1 0.4-25.2 1.2-28.2 0.7-2.6 1.6-5 2-5.5 0.4-0.5 0.8-1.5 0.8-2.3-0.1-0.9 2.7-4.2 6.2-7.5 3.4-3.3 7.8-6.5 9.7-7.1 2-0.7 7.9-1.2 13.3-1.3zm247.5-0.1c4.8 0 10.6 0.6 14 1.6 4.5 1.3 6.9 2.8 11.5 7.2 3.1 3.1 5.7 6.4 5.7 7.4 0 1 0.4 1.9 0.8 2.1 0.4 0.3 1.3 2.8 2 5.8 0.9 3.6 1.2 10.3 0.7 34.9l-24.3 0.2c-19.2 0.2-24.6 0.5-25.5 1.6-0.8 1-0.9 3.6-0.4 8.8 0.4 4 1.3 8.3 2 9.6 0.7 1.2 2.1 3.1 3.2 4.2 1.1 1.1 3.3 2.6 4.8 3.3 1.5 0.7 5.2 1.3 8.2 1.3 3.1 0 5.8-0.5 6-1 0.3-0.6 1.3-1.1 2.3-1.1 0.9 0 3.1-1.6 4.7-3.5 1.7-1.9 3.5-5.4 5-11.9l16-0.7-0.6 5.4c-0.4 2.9-1.5 7.1-2.6 9.3-1 2.2-2.5 5.1-3.3 6.4-0.8 1.4-1.9 3-2.5 3.6-0.5 0.5-2.3 2-4 3.1-1.6 1.2-5.2 2.9-8 3.9-2.7 0.9-8.3 1.9-12.5 2-4.1 0.2-9.5-0.2-12-0.9-2.5-0.6-5.8-1.9-7.3-2.9-1.5-1-3-1.8-3.4-1.8-0.4 0-2.1-1.5-3.8-3.4-1.6-1.8-3.5-4.5-4.2-5.9-0.7-1.5-1.8-3.8-2.5-5.3-0.9-1.9-1.3-10.5-1.3-31.7 0-28.8 0.1-29.2 2.5-34.1 1.3-2.8 4.2-6.8 6.5-9.1 2.2-2.2 5.2-4.5 6.5-5.1 1.4-0.6 3.7-1.6 5-2.2 1.4-0.5 6.2-1 10.8-1.1zm-9.3 18.4c-1.8 1.4-3.7 4.2-4.7 7.2-1 3-1.6 7.1-1.4 10.9 0.2 3.3 0.5 6.4 0.9 7 0.3 0.6 7 1 16.9 1h16.3c0.5-11.8 0.1-16.1-0.6-17.5-0.6-1.4-1.6-3.4-2-4.5-0.5-1.1-2.5-3.1-4.4-4.3-2.2-1.4-5.5-2.4-8.7-2.6-2.9-0.2-6.2-0.1-7.3 0.1-1.1 0.3-3.3 1.5-5 2.7zm-1489.6-16.1c4.2 0.3 9.7 0.8 12.1 1.1 2.5 0.3 8.4 1 13 1.6 4.7 0.5 10.8 1.1 13.5 1.4 2.8 0.2 7.1 0.7 9.5 1 2.5 0.3 7 0.8 10 1.1 3.1 0.3 8.9 1 13 1.5 4.2 0.5 11.1 1.2 15.5 1.5 4.4 0.4 8.6 0.9 9.2 1.3 0.7 0.4 1.4 1.9 1.8 3.4 0.3 1.5 0.1 3-0.5 3.3-0.5 0.2-1 1.8-1 3.5 0 2.8-0.1 3-4.5 3-2.4 0-5.5-0.4-6.7-0.9-1.3-0.5-5.9-1.1-10.3-1.2-4.4-0.2-8.4-0.6-9-1-0.5-0.4-4.3-0.9-8.5-1-4.1-0.1-8.6-0.6-10-1-1.3-0.5-5.8-1-10-1.3-4.1-0.3-8.1-0.7-9-1-0.8-0.3-5.3-0.8-10-1-4.6-0.2-9.1-0.7-10-1-0.8-0.3-4.6-0.7-8.5-0.9-3.8-0.2-7.5-0.7-8.2-1.1-0.9-0.4-1.1-2.1-0.7-5.4 0.3-2.6 0.8-5.3 1.1-6.1 0.4-1 2.3-1.2 8.2-0.8zm714.1-0.3v7.5c0 7.5 0 7.5-2.7 7.5-1.5 0.1-6.1 0-10.3 0-4.1-0.1-8.3 0.1-9.2 0.4-1.7 0.5-1.8 3.4-1.8 84.6h-15v-40.8c0-23.9-0.4-41.4-1-42.2-0.7-1.2-3.2-1.5-11.4-1.5-5.7 0-10.6-0.3-10.9-0.5-0.3-0.3-0.6-3.2-0.7-6.5-0.1-3.3-0.1-6.6-0.1-7.3 0.1-1 7.2-1.2 63.1-1.2zm2.8 0l16.7-0.1 3.3 9.8c1.8 5.4 3.7 10.7 4.1 11.8 0.5 1.1 2.3 6.7 4.2 12.5 1.8 5.7 3.6 10.9 3.9 11.5 0.4 0.5 1.2 3 2 5.5 0.7 2.4 1.7 5.8 2.3 7.5 0.6 1.6 1.4 3.4 1.8 4 0.5 0.5 1.3-1 2-3.5 0.6-2.5 1.5-5.3 2-6.3 0.5-1 0.9-2.9 0.9-4.2 0-1.4 0.5-2.8 1-3 0.6-0.3 1-2.1 1-4 0-2 0.5-3.5 1-3.5 0.6 0 1-0.8 1-1.8 0-1 0.9-4.2 1.9-7.2 1-3.1 2.4-7.3 3-9.5 0.6-2.2 2-7 3.1-10.5 1.1-3.6 2-7.1 2-7.8 0-0.9 2.4-1.2 17-1.2l-0.6 2.7c-0.3 1.5-0.9 3.9-1.3 5.3-0.5 1.3-1.4 4.5-2.1 7-0.7 2.4-2 6.9-3 10-0.9 3-2.3 7.5-3 10-0.6 2.4-1.6 5.6-2 7-0.4 1.3-1.3 4.5-2 7-0.6 2.4-1.6 5.4-2 6.5-0.4 1.1-1.7 5.1-2.9 9-1.1 3.8-2.1 7.5-2.1 8.2 0 0.7-0.4 2-0.9 3-0.5 1-2.4 6.7-4.1 12.8-1.7 6-3.5 12.3-4 14-0.5 1.6-1.9 5.9-3 9.5-1.2 3.5-2.7 7.8-3.5 9.5-0.7 1.6-3.4 4.9-5.9 7.2-2.5 2.3-5.8 4.8-7.3 5.4-1.5 0.6-5.6 1-9 1-3.5-0.1-6.6-0.3-7-0.5-0.4-0.3-0.7-3.3-0.6-6.8 0.2-3.5 0.3-6.7 0.3-7.1 0-0.4 1.7-0.7 3.8-0.7 2 0 5.2-0.9 7-2 2-1.3 4-3.9 5.3-6.8 1.2-2.6 2.4-6.3 2.8-8.1 0.3-1.9 1-3.5 1.4-3.8 0.4-0.2 0.7-1.5 0.7-2.8 0-1.4 0.6-3.4 1.3-4.5 1-1.6 1-2.7-0.1-5.8-0.7-2-1.7-4.6-2.2-5.7-0.5-1.1-2.1-5.6-3.5-10-1.4-4.4-3.2-9.4-3.9-11-0.7-1.7-1.9-5.1-2.6-7.5-0.7-2.5-1.6-5-2-5.5-0.3-0.6-1.2-3.1-2-5.5-0.7-2.5-1.7-5-2.1-5.5-0.3-0.6-1.2-3.1-1.9-5.5-0.7-2.5-1.6-5-2-5.5-0.3-0.6-1.2-3.1-2-5.5-0.7-2.5-1.7-5-2.2-5.5-0.4-0.6-0.8-1.9-0.8-3 0-1.1-0.4-2.5-0.9-3-0.5-0.6-1.2-2.5-1.6-4.3zm90.2 0h55v84l2.8 0.6c1.5 0.4 3.4 0.4 4.2 0.1 0.9-0.3 2.2-0.1 3 0.4 1.3 0.7 1.5 3.7 1.6 17.1 0 9-0.3 17-0.7 17.8-0.5 1.1-2.3 1.5-14.4 1.3l-1-20.8-53.5-0.5v21h-16l0.5-36.5 3 0.3c1.9 0.2 3.7-0.4 4.8-1.5 1-1 1.8-2.4 1.8-3-0.1-0.7 0.3-2.1 0.8-3 0.5-1 1.4-3.6 2-5.8 0.5-2.2 1.5-6.7 2.1-10 0.5-3.3 1.2-9.1 1.5-13 0.3-3.8 1-15.3 1.5-25.5 0.5-10.2 1-19.5 1-20.7zm14.7 30.5c-0.3 7.1-1 17.5-1.5 23-0.6 5.5-1.5 12.4-2 15.5-0.6 3-1.7 7.5-2.6 10-0.8 2.4-1.3 4.7-1 5 0.3 0.2 5.8 0.6 12.2 0.7 6.4 0.1 13.4 0 15.4-0.3l3.8-0.4c0-60.5-0.3-68.1-1.3-68.2-0.6-0.1-5.9-0.2-11.6-0.2-6.4-0.1-10.4 0.3-10.6 0.9-0.1 0.6-0.4 6.9-0.8 14zm164.3-30.5l0.5 40.5 14.5 0.1c8 0.1 15.1 0 15.7-0.2 1-0.3 1.3-5.3 1.3-40.4h16v100h-16l-0.5-43.5h-31l-0.5 43.5h-15c0-25.6 0-94.2 0-95.5 0-1.4 0-3 0-3.5 0-0.6 3.2-1 15-1zm64 0h7.5c6.5 0 7.5 0.2 7.5 1.7 0 1 0.1 9.4 0.3 18.8 0.3 15.6 0.5 17.4 2.8 21.9 1.3 2.7 3.7 5.9 5.4 7.2 2.4 1.9 4.3 2.3 9.7 2.3 3.8 0 8.6-0.5 10.8-1.2 2.8-0.9 4.1-1.9 4.5-3.7 0.4-1.4 0.6-12 0.5-23.5-0.1-11.6-0.1-21.6-0.1-22.3 0.1-0.9 2.3-1.2 15.1-1.2v100h-15l-0.1-13.3c-0.1-7.3-0.1-15 0.3-21.2l-5.8 0.9c-3.3 0.5-9.1 1-12.9 1.1-3.9 0.1-7.7-0.2-8.5-0.6-0.8-0.4-2.9-1.3-4.5-2.1-1.7-0.7-4.8-3.1-7.1-5.3-2.2-2.2-5-6.2-6.2-8.8-1.2-2.6-2.6-6.7-3.2-9-0.5-2.3-1-12.7-1-23zm252 0h16v19.5c0 10.7 0.4 19.7 0.8 20 0.4 0.2 1.4-0.8 2.2-2.3 0.8-1.5 1.8-2.9 2.1-3.2 0.3-0.3 1.6-2.1 2.9-4 1.3-1.9 2.7-3.7 3-4 0.3-0.3 1.7-2.1 3-4 1.3-1.9 2.7-3.7 3-4 0.3-0.3 1.7-2.1 3-4 1.3-1.9 2.7-3.7 3-4 0.3-0.3 1.7-2.1 3-4 1.4-1.9 3-4.1 3.7-4.7 0.8-0.9 4.4-1.3 10.7-1.3 5.3 0 9.6 0.3 9.6 0.8 0.1 0.4-0.8 1.6-2 2.7-1.1 1.1-2 2.3-2 2.8 0 0.4-1.8 2.6-4 5-2.2 2.3-4 4.5-4 5 0 0.4-1.8 2.6-4 5-2.2 2.3-4 4.7-4 5.2 0 0.6-0.9 1.7-1.8 2.5-1 0.8-2.9 3.1-4.2 5-1.3 1.9-3.2 4.4-4.2 5.5-1 1.1-1.8 3-1.8 4.3 0 1.2 0.5 2.2 1 2.2 0.6 0 1 0.6 1 1.3 0 0.6 0.8 2.1 1.7 3.2 1 1.1 2.5 3.3 3.3 4.8 0.8 1.5 1.9 2.8 2.3 2.7 0.4 0 0.7 0.6 0.7 1.3 0 0.6 1.4 2.7 3 4.5 1.7 1.7 3 3.4 3 3.7 0 0.3 3.2 5.3 7.2 11.3 3.9 5.9 7.4 10.9 7.7 11.2 0.4 0.3 1.3 1.8 2.1 3.3 0.8 1.5 1.9 2.8 2.3 2.7 0.4 0 0.7 0.9 0.7 2 0 1.9-0.7 2-18 2l-3.2-4.7c-1.7-2.7-3.5-4.9-4-5-0.4-0.2-0.8-0.9-0.8-1.5 0-0.7-0.7-2.2-1.7-3.3-1-1.1-2.5-3.2-3.3-4.8-0.8-1.5-1.8-2.7-2.2-2.7-0.4 0-0.8-0.6-0.8-1.2 0-0.7-1.1-2.6-2.6-4.3-1.4-1.6-4.2-5.6-6.2-8.7-2-3.2-4.4-5.8-5.2-5.7-0.8 0-2.5 1.2-3.7 2.7-2.2 2.6-2.3 3.5-2.3 39.2h-16zm81 0h15v34c0 22 0.4 34 1 34 0.6 0 1-0.7 1-1.5 0-0.8 1-3.6 2.1-6.2 1.2-2.7 3.6-7.9 5.4-11.8 1.8-3.8 6.6-14 10.8-22.5 4.1-8.5 8.5-17.8 12.2-26h16.5l0.2 47.3c0 25.9 0.1 48.3 0.2 49.7 0 2.4-0.2 2.5-15.4 3v-34c0-22-0.3-34-1-34-0.5 0-1 0.7-1 1.5 0 0.8-0.4 2.3-0.9 3.3-0.5 0.9-1.3 2.8-1.9 4.2-0.5 1.4-3.6 8.1-6.9 15-3.3 6.9-9.2 19-13.2 27-3.9 8-7.1 15.1-7.1 15.8 0 0.9-2.3 1.2-17 1.2zm-1394.4 18.3l9.5 2.5c5.2 1.3 10.8 2.6 12.4 2.9 1.7 0.2 3.9 0.8 5 1.2 1.1 0.5 3.6 1.3 5.5 2 1.9 0.6 4.3 1.1 5.3 1.1 0.9 0 2.5 0.4 3.5 1 0.9 0.5 4.6 1.6 8.2 2.5 3.6 0.9 9.9 2.6 14 3.7 4.1 1.1 8.9 2.2 10.5 2.5 1.7 0.2 3.9 0.8 5 1.3 1.1 0.4 3.8 1.3 6 1.9 2.2 0.6 7.2 1.9 11 3 3.9 1 10.6 2.8 15 3.9 4.4 1.2 9.3 2.4 10.8 2.7 1.5 0.3 2.7 1.2 2.7 2 0 0.8-0.5 3.6-1.2 6.1-0.7 2.6-1.6 4.8-2 5-0.4 0.2-3.1-0.1-6-0.7-2.9-0.6-7.1-1.5-9.3-2.1-2.2-0.6-4.9-1.4-6-1.8-1.1-0.5-3.1-1.1-4.5-1.5-1.4-0.3-5.9-1.5-10-2.6-4.1-1.1-10.4-2.7-14-3.5-3.6-0.9-7.3-2-8.2-2.5-1-0.5-2.6-0.9-3.5-0.9-1 0-4.5-0.8-7.8-1.9-3.3-1.1-7.1-2.1-8.5-2.4-1.4-0.2-3.2-0.6-4-0.9-0.8-0.3-3.4-1.1-5.7-1.7-2.4-0.6-6.2-1.6-8.5-2.2-2.4-0.7-5.6-1.5-7.3-2-1.6-0.4-6.1-1.7-10-2.8-3.8-1.2-7.9-2.1-9-2.1-1.8 0-1.9-0.4-1.3-4.2 0.3-2.4 1-5.5 1.5-6.9zm-4.5 18.7c0.5 0 2.6 0.7 4.7 1.6 2 0.9 4.8 2.1 6.2 2.7 1.4 0.5 3.4 1.3 4.5 1.7 1.1 0.5 4.1 1.8 6.8 2.9 2.6 1.2 4.9 2.1 5.2 2.1 0.3 0 2.6 1 5.3 2.1 2.6 1.2 5.6 2.5 6.7 2.9 1.1 0.5 4 1.7 6.5 2.8 2.5 1.1 6.3 2.6 8.5 3.3 2.2 0.8 5.5 2.2 7.3 3.1 1.7 1 3.7 1.8 4.2 1.8 0.6 0 3.9 1.4 7.5 3 3.6 1.7 7 3 7.5 3 0.6 0 1.8 0.4 2.8 0.9 0.9 0.5 4.3 2.1 7.5 3.5 5.6 2.6 5.7 2.7 5 5.9-0.3 1.8-1.2 4.5-2 6-0.7 1.5-1.7 2.7-2.3 2.7-0.5 0-3.4-0.9-6.2-2.1-2.9-1.1-6.9-2.7-8.8-3.6-1.9-0.8-4.4-1.8-5.5-2.3-1.1-0.4-4.1-1.7-6.7-2.9-2.7-1.1-5-2.1-5.3-2.1-0.3 0-2.6-0.9-5.2-2.1-2.7-1.1-5.7-2.4-6.8-2.9-1.1-0.4-4.1-1.7-6.7-2.9-2.7-1.1-5.1-2.1-5.5-2.1-0.5 0-2.1-0.6-3.8-1.4-1.6-0.7-4.8-2.1-7-3.1-2.2-0.9-4.9-2-6-2.5-1.1-0.4-4.1-1.7-6.7-2.9-2.7-1.1-5-2.1-5.3-2.1-0.3 0-3-1.1-6-2.5-5.3-2.4-5.5-2.6-4.8-5.7 0.3-1.8 1.3-4.5 2-6 0.8-1.5 1.8-2.8 2.4-2.8zm-7.5 17c0.8 0 1.4 0.5 1.4 1 0 0.6 0.8 1.2 1.8 1.5 0.9 0.2 3.7 1.6 6.2 3.1 2.5 1.5 7 4.1 10 5.7 3 1.7 7.3 4.2 9.5 5.7 2.2 1.4 5.4 3.2 7 4 1.7 0.9 3.2 1.7 3.5 2 0.3 0.3 1.6 1.2 3 1.9 1.4 0.8 4.3 2.4 6.5 3.5 2.2 1.2 4.2 2.4 4.5 2.7 0.3 0.3 1.2 0.9 2 1.2 0.8 0.4 3.3 1.7 5.5 3 2.4 1.5 4.1 3.2 4.3 4.5 0.1 1.2-0.2 2.2-0.8 2.2-0.5 0-1 0.6-1 1.3 0 0.7-1 2.5-2.2 4.1-2.1 2.7-2.5 2.8-4.8 1.5-1.4-0.8-2.7-1.6-3-1.9-0.3-0.3-1.6-1.1-3-1.9-1.4-0.8-4-2.2-5.7-3.2-1.8-1.1-4.8-2.7-6.5-3.7-1.8-1-4.4-2.5-5.8-3.3-1.4-0.8-2.7-1.6-3-1.9-0.3-0.3-1.6-1.1-3-1.9-1.4-0.8-4.3-2.4-6.5-3.5-2.2-1.2-4.2-2.3-4.5-2.6-0.3-0.3-1.6-1.1-3-1.9-1.4-0.8-3.8-2.2-5.5-3.1-1.6-0.9-5-2.8-7.5-4.3-2.5-1.4-4.9-3.2-5.5-4.1-0.7-1.1-0.6-2.2 0.4-3.8 0.8-1.3 2.1-3.5 2.8-5 0.8-1.5 2.1-2.8 2.9-2.8zm-9.2 17.7c1.2 0.3 3.2 1.7 4.6 3 1.4 1.3 2.8 2.3 3.3 2.3 0.4 0 1.7 1 3 2.3 1.2 1.2 3.8 3.4 5.7 4.7 1.9 1.4 4.9 3.7 6.5 5.2 1.7 1.6 3.3 2.8 3.8 2.8 0.4 0 2.2 1.4 4 3 1.7 1.7 3.8 3 4.5 3 0.6 0 1.3 0.4 1.5 0.8 0.1 0.4 2.2 2.3 4.7 4.3 2.5 1.9 4.7 3.7 5 4 0.3 0.3 2.1 1.6 4 2.9 1.9 1.4 4.9 3.7 6.5 5.2 1.7 1.6 3.6 2.8 4.3 2.8 0.6 0 1.3 0.4 1.5 0.8 0.1 0.4 2.2 2.3 4.7 4.3 2.5 1.9 4.7 3.7 5 4 0.3 0.3 2.1 1.6 4 2.9 1.9 1.4 4.1 3 4.8 3.7 0.6 0.7 1.2 1.7 1.2 2.1 0 0.4-1.7 2.6-3.7 5-3 3.4-4.2 4.1-5.8 3.6-1.1-0.4-3.6-2.2-5.5-4.1-1.9-1.8-3.8-3.3-4.2-3.3-0.5 0-1.4-0.6-2-1.3-0.7-0.7-2.9-2.3-4.8-3.7-1.9-1.3-4.8-3.7-6.5-5.2-1.6-1.5-3.6-2.8-4.2-2.8-0.7 0-1.4-0.4-1.5-0.8-0.2-0.5-4.1-3.7-8.8-7.3-4.7-3.5-9.8-7.6-11.5-9.1-1.6-1.5-3.3-2.8-3.7-2.8-0.5 0-2.3-1.3-4-3-1.8-1.6-3.7-3-4.3-3-0.5 0-1.7-0.9-2.5-1.8-0.8-1-3.1-2.9-5-4.2-1.9-1.3-4.8-3.7-6.5-5.2-1.6-1.5-3.3-2.8-3.7-2.8-0.5 0-1.5-0.7-2.3-1.5-1.2-1.2-1.3-1.9-0.2-3.7 0.6-1.2 2.3-3.4 3.6-5 1.8-2.1 3-2.6 4.5-2.1zm640.1 80.4c3.3 0 8.3 0.5 11 1.3 2.8 0.7 6.8 2.2 9 3.2 2.1 1.1 5.7 3.7 8 6 2.2 2.2 5 6.1 6.2 8.5 1.1 2.4 2.7 6 3.5 7.9 1 2.7 1.3 11.9 1.3 41 0 29.7-0.3 38.5-1.4 42-0.8 2.5-1.8 5-2.3 5.5-0.4 0.6-0.8 1.8-0.8 2.8 0 0.9-0.3 1.7-0.7 1.7-0.5 0-1.5 1.2-2.3 2.7-0.8 1.6-1.9 3.3-2.5 3.9-0.5 0.5-3 2.4-5.5 4.1-2.5 1.7-6.1 3.5-8 4.1-1.9 0.6-4.8 1.4-6.5 1.9-1.6 0.5-7.3 0.5-12.5 0.1-6.8-0.6-10.9-1.5-14.5-3.2-2.7-1.3-6.9-4.2-9.2-6.5-2.4-2.2-4.3-4.3-4.3-4.6 0-0.3-0.8-1.7-1.8-3.2-1-1.5-2.4-4.8-3.1-7.3-0.7-2.5-1.7-5.5-2.2-6.7-0.5-1.3-0.7-17.9-0.5-37 0.2-19.1 0.7-36.6 1.3-38.8 0.5-2.2 2.1-6.5 3.6-9.5 1.4-3 4.6-7.3 6.9-9.5 2.4-2.2 5.9-4.9 7.8-5.9 1.9-1.1 5.8-2.5 8.5-3.2 2.8-0.6 7.7-1.2 11-1.3zm-8.7 18.3c-1.6 0.4-4.2 2.1-5.8 3.9-1.7 1.8-4.1 5.2-5.3 7.7-2.1 4.4-2.2 5.6-2.2 37.5 0 26.4 0.3 34 1.5 37.8 0.8 2.7 2.7 6.4 4.3 8.3 1.5 1.9 4.4 4.2 6.5 5.2 2.5 1.1 6 1.7 10.7 1.6 5.9 0 7.6-0.5 11-2.8 2.2-1.5 4.9-4.1 6.1-5.9 1.1-1.7 2.6-5 3.2-7.2 0.8-2.7 1.2-14.3 1.2-35.5 0-20.9-0.4-32.7-1.2-35-0.6-1.9-1.7-4.9-2.4-6.7-0.8-1.8-3.1-4.6-5.1-6.2-2.1-1.7-5.1-3.3-6.8-3.6-1.6-0.3-4.3-0.8-6-1-1.6-0.2-3.9 0-5 0.5-1.1 0.5-3.2 1.1-4.7 1.4zm115.2 16.3c3.6 0.1 6.7 0.5 7 0.9 0.3 0.3 0.5 3.6 0.4 13.9l-11.5 0.3c-7.5 0.2-11.7 0.7-12.2 1.5-0.4 0.7-0.7 19.7-0.6 42.2 0.1 41 0.1 41-2 41.5-1.2 0.3-4.6 0.4-13.1 0l-0.5-84.5-23.5-0.5v-15l24.8-0.2c13.6-0.2 27.6-0.2 31.2-0.1zm157-0.5c0.3-0.1 1.6 0.1 5.5 1.1l-1 100.2h-15l-0.5-35.5h-6c-4.9 0-6.1 0.3-6.4 1.8-0.3 0.9-1.3 3.1-2.3 4.7-1 1.7-2 3.2-2.3 3.5-0.3 0.3-1.1 1.6-1.9 3-0.8 1.4-2.4 4.3-3.5 6.5-1.2 2.2-2.3 4.2-2.6 4.5-0.3 0.3-1.1 1.6-1.9 3-0.8 1.4-2.1 3.8-2.8 5.3-1.1 2.3-2 2.7-5.5 2.9-2.4 0.1-5.6 0.1-7.3 0.1-1.6-0.1-4-0.1-7.5-0.3l2.3-4.2c1.2-2.4 2.5-4.4 3-4.5 0.4-0.2 0.7-0.7 0.7-1.3 0-0.5 1.8-3.8 4-7.2 2.2-3.5 4.4-6.8 5-7.5 0.5-0.7 1-1.5 1-1.8 0-0.3 1.4-2.5 6-9.5l-2.2-1.2c-1.3-0.6-4.2-3-6.6-5.2-2.4-2.3-4.9-5.4-5.6-7.1-0.7-1.6-1.8-4.2-2.5-5.7-0.6-1.5-1.1-6.8-1.1-11.8 0-4.9 0.5-10.2 1.1-11.7 0.7-1.5 1.8-4.1 2.5-5.8 0.7-1.6 3-4.6 5.1-6.5 2.1-2 6.1-4.6 8.8-5.9 4.4-2.1 7.1-2.5 22-3.1 9.4-0.3 17.2-0.7 17.5-0.8zm-34 18.7c-1.4 0.6-3.5 2.9-4.7 5.1-1.7 2.9-2.3 5.6-2.3 10 0 3.3 0.6 7.3 1.3 8.8 0.6 1.5 2.1 3.6 3.2 4.7 1.1 1.1 3.2 2.6 4.8 3.3 1.5 0.7 6.7 1.2 11.7 1.2h9v-36c-13.6 0.1-18.2 0.5-19 1-0.8 0.4-2.6 1.3-4 1.9zm73-18.3c1.4 0 13 0.2 49 0.4l0.5 84.5 10.5 0.5v36h-15v-9.5c0-8-0.3-9.6-1.7-10.4-1-0.5-13-0.9-51.8-0.6l-0.5 20.5-8.2-0.2c-4.6-0.2-8.2-0.6-8-1 0.1-0.4 0.2-8.4 0.2-34.8l3.7-0.2c2.9-0.2 4-0.9 5.3-3.3 0.9-1.6 2.1-4.8 2.7-7 0.6-2.2 1.6-5.8 2.1-8 0.6-2.2 1.5-8 2.1-13 0.6-4.9 1.3-14.8 1.6-22 0.3-7.1 0.7-17.1 1-22.2 0.3-7.8 0.7-9.2 2.2-9.5 1-0.2 2.9-0.3 4.3-0.2zm8.5 28.4c-0.3 4.7-0.7 12.6-1 17.5-0.2 5-0.9 12.4-1.4 16.5-0.6 4.1-1.6 9.5-2.2 12-0.6 2.5-1.2 6-1.5 7.8l-0.4 3.2c24.1 0 30.1-0.4 30.3-1 0.1-0.5 0-16.2-0.3-34.7l-0.5-33.8c-20.9-0.5-21.3-0.5-21.9 1.7-0.3 1.3-0.8 6.1-1.1 10.8zm64.5-27h16v15.5c0 8.5 0.2 16.2 0.5 17 0.4 1.2 2.3 1.5 9 1.5 4.7 0 11.4 0.6 15 1.3 3.6 0.7 6.5 1.6 6.5 2 0 0.4 0.7 0.7 1.5 0.7 0.8 0 3.9 2.4 6.8 5.3 2.9 2.9 5.8 6.3 6.4 7.7 0.7 1.4 1.7 4.3 2.4 6.5 0.7 2.3 1 7.2 0.7 11.5-0.2 4.1-1.1 8.9-1.9 10.5-0.8 1.7-2.2 4.1-3 5.5-0.7 1.3-2.4 3.4-3.6 4.7-1.3 1.3-4.9 3.6-8 5.2-3.2 1.6-7.8 3.2-10.3 3.5-2.5 0.4-11.7 0.7-20.5 0.8-8.8 0.1-16.6-0.2-17.2-0.5-0.7-0.4-1.1-1.5-0.9-2.4 0.3-1 0.5-23 0.5-49zm16.2 67l0.3 16.5c12.4 0.5 17.7 0.1 19.8-0.5 2-0.6 5.2-2.5 7-4.3 1.9-1.8 3.9-4.8 4.6-6.7 0.6-2 1.2-4.7 1.2-6 0-1.4-0.7-4.1-1.5-6-0.7-2-2.4-4.5-3.7-5.7-1.3-1.1-3.5-2.6-4.9-3.3-1.4-0.7-6.6-1.3-11.8-1.4-5.2-0.1-9.8 0.1-10.4 0.4-0.6 0.3-0.8 6.7-0.6 17zm60.8-67h16v99h-16z"/></svg>